<svg width="73" height="40" viewBox="0 0 73 40" fill="none" xmlns="http://www.w3.org/2000/svg">
<path d="M54.3089 12.0523L60.3644 1.80188C60.7061 1.22724 60.4995 0.49728 59.9194 0.163365C59.3393 -0.170544 58.5843 0.0235852 58.2505 0.598228L52.1156 10.9806C47.4348 8.89171 42.1661 7.72688 36.5 7.72688C30.8339 7.72688 25.5651 8.8917 20.8844 10.9806L14.7494 0.598228C14.4077 0.0235852 13.6607 -0.170544 13.0726 0.163365C12.4845 0.49728 12.2858 1.22724 12.6276 1.80188L18.6831 12.0523C8.24089 17.5813 1.16816 27.9093 0 40H73C71.8318 27.9092 64.759 17.5812 54.3089 12.0523ZM19.74 29.9827C18.0473 29.9827 16.6805 28.6392 16.6805 26.993C16.6805 25.3389 18.0553 24.0033 19.74 24.0033C21.4327 24.0033 22.7996 25.3467 22.7996 26.993C22.8075 28.6392 21.4327 29.9827 19.74 29.9827ZM53.252 29.9827C51.5594 29.9827 50.1925 28.6392 50.1925 26.993C50.1925 25.3389 51.5673 24.0033 53.252 24.0033C54.9447 24.0033 56.3116 25.3467 56.3116 26.993C56.3195 28.6392 54.9447 29.9827 53.252 29.9827Z" fill="#A4C439"/>
</svg>
