<svg width="193" height="48" viewBox="0 0 193 48" fill="none" xmlns="http://www.w3.org/2000/svg">
<path d="M3.86364 39V9.90909H20.7386V12.2955H6.51989V23.2472H19.8438V25.6335H6.51989V36.6136H21.0227V39H3.86364ZM28.6506 17.1818L34.2756 26.4858L39.9006 17.1818H42.8409L35.8239 28.0909L42.8409 39H39.9006L34.2756 29.9943L28.6506 39H25.7244L32.6562 28.0909L25.7244 17.1818H28.6506ZM48.1428 47.1818V17.1818H50.6001V21.3438H50.8984C51.2015 20.6903 51.6181 20.0227 52.1484 19.3409C52.6787 18.6496 53.3795 18.0672 54.2507 17.5938C55.1314 17.1203 56.2393 16.8835 57.5746 16.8835C59.3738 16.8835 60.9458 17.357 62.2905 18.304C63.6447 19.2415 64.6958 20.5578 65.4439 22.2528C66.2015 23.9384 66.5803 25.9034 66.5803 28.1477C66.5803 30.4015 66.2015 32.3759 65.4439 34.071C64.6958 35.7661 63.6447 37.0871 62.2905 38.0341C60.9458 38.9811 59.3833 39.4545 57.603 39.4545C56.2867 39.4545 55.1835 39.2178 54.2933 38.7443C53.4126 38.2708 52.6977 37.6884 52.1484 36.9972C51.6087 36.2964 51.192 35.6146 50.8984 34.9517H50.6712V47.1818H48.1428ZM50.6428 28.1051C50.6428 29.8665 50.9032 31.429 51.424 32.7926C51.9543 34.1468 52.7119 35.2121 53.6967 35.9886C54.6911 36.7557 55.8937 37.1392 57.3047 37.1392C58.7536 37.1392 59.9751 36.7415 60.9695 35.946C61.9732 35.1411 62.7356 34.0568 63.2564 32.6932C63.7867 31.3295 64.0518 29.8002 64.0518 28.1051C64.0518 26.429 63.7914 24.9186 63.2706 23.5739C62.7592 22.2292 62.0017 21.1638 60.9979 20.3778C59.9941 19.5824 58.763 19.1847 57.3047 19.1847C55.8842 19.1847 54.6768 19.5682 53.6825 20.3352C52.6882 21.0928 51.9306 22.1439 51.4098 23.4886C50.8984 24.8239 50.6428 26.3627 50.6428 28.1051ZM72.1271 39V17.1818H74.5845V20.5341H74.7692C75.2048 19.4356 75.9624 18.5502 77.0419 17.8778C78.1309 17.196 79.362 16.8551 80.7351 16.8551C80.9434 16.8551 81.1754 16.8598 81.4311 16.8693C81.6868 16.8788 81.8999 16.8883 82.0703 16.8977V19.4688C81.9567 19.4498 81.7578 19.4214 81.4737 19.3835C81.1896 19.3456 80.8819 19.3267 80.5504 19.3267C79.4141 19.3267 78.4008 19.5682 77.5107 20.0511C76.63 20.5246 75.9339 21.1828 75.4226 22.0256C74.9112 22.8684 74.6555 23.8295 74.6555 24.9091V39H72.1271ZM94.5419 39.4545C92.5059 39.4545 90.7446 38.9811 89.2578 38.0341C87.7711 37.0777 86.6205 35.7566 85.8061 34.071C85.0012 32.3759 84.5987 30.4252 84.5987 28.2188C84.5987 26.0218 85.0012 24.071 85.8061 22.3665C86.6205 20.6525 87.7427 19.3125 89.1726 18.3466C90.612 17.3712 92.2739 16.8835 94.1584 16.8835C95.3421 16.8835 96.4832 17.1013 97.5817 17.5369C98.6802 17.9631 99.665 18.6212 100.536 19.5114C101.417 20.392 102.113 21.5047 102.624 22.8494C103.136 24.1847 103.391 25.7661 103.391 27.5938V28.8438H86.3459V26.6136H100.806C100.806 25.2121 100.522 23.9527 99.9538 22.8352C99.3951 21.7083 98.6139 20.8182 97.6101 20.1648C96.6158 19.5114 95.4652 19.1847 94.1584 19.1847C92.7758 19.1847 91.5589 19.554 90.5078 20.2926C89.4567 21.0312 88.6328 22.0066 88.0362 23.2188C87.4491 24.4309 87.1508 25.7566 87.1413 27.196V28.5312C87.1413 30.2642 87.4396 31.7794 88.0362 33.0767C88.6423 34.3646 89.4993 35.3636 90.6072 36.0739C91.7152 36.7841 93.0268 37.1392 94.5419 37.1392C95.5741 37.1392 96.4785 36.9782 97.255 36.6562C98.041 36.3343 98.6991 35.9034 99.2294 35.3636C99.7692 34.8144 100.176 34.2131 100.451 33.5597L102.852 34.3409C102.52 35.2595 101.976 36.107 101.218 36.8835C100.47 37.66 99.5324 38.285 98.4055 38.7585C97.2881 39.2225 96.0002 39.4545 94.5419 39.4545ZM123.622 21.9688L121.307 22.6222C121.08 21.9687 120.758 21.3769 120.341 20.8466C119.924 20.3163 119.38 19.8949 118.707 19.5824C118.045 19.2699 117.221 19.1136 116.236 19.1136C114.759 19.1136 113.546 19.464 112.599 20.1648C111.652 20.8655 111.179 21.7699 111.179 22.8778C111.179 23.8153 111.501 24.5777 112.145 25.1648C112.798 25.7424 113.802 26.2017 115.156 26.5426L118.452 27.3523C120.279 27.7973 121.648 28.5028 122.557 29.4688C123.475 30.4347 123.935 31.6468 123.935 33.1051C123.935 34.3362 123.594 35.4299 122.912 36.3864C122.23 37.3428 121.278 38.0956 120.057 38.6449C118.845 39.1847 117.438 39.4545 115.838 39.4545C113.707 39.4545 111.951 38.9763 110.568 38.0199C109.186 37.054 108.3 35.6619 107.912 33.8438L110.341 33.2472C110.653 34.5445 111.264 35.5246 112.173 36.1875C113.092 36.8504 114.299 37.1818 115.795 37.1818C117.472 37.1818 118.812 36.8078 119.815 36.0597C120.819 35.3021 121.321 34.3551 121.321 33.2188C121.321 32.3381 121.027 31.5994 120.44 31.0028C119.853 30.3968 118.963 29.9517 117.77 29.6676L114.205 28.8153C112.311 28.3608 110.909 27.6411 110 26.6562C109.091 25.6714 108.636 24.4498 108.636 22.9915C108.636 21.7888 108.963 20.733 109.616 19.8239C110.27 18.9053 111.17 18.1856 112.315 17.6648C113.461 17.1439 114.768 16.8835 116.236 16.8835C118.234 16.8835 119.83 17.3381 121.023 18.2472C122.225 19.1468 123.092 20.3873 123.622 21.9688ZM144.13 21.9688L141.815 22.6222C141.587 21.9687 141.265 21.3769 140.849 20.8466C140.432 20.3163 139.888 19.8949 139.215 19.5824C138.552 19.2699 137.728 19.1136 136.744 19.1136C135.266 19.1136 134.054 19.464 133.107 20.1648C132.16 20.8655 131.687 21.7699 131.687 22.8778C131.687 23.8153 132.009 24.5777 132.653 25.1648C133.306 25.7424 134.31 26.2017 135.664 26.5426L138.96 27.3523C140.787 27.7973 142.156 28.5028 143.065 29.4688C143.983 30.4347 144.442 31.6468 144.442 33.1051C144.442 34.3362 144.102 35.4299 143.42 36.3864C142.738 37.3428 141.786 38.0956 140.565 38.6449C139.353 39.1847 137.946 39.4545 136.346 39.4545C134.215 39.4545 132.459 38.9763 131.076 38.0199C129.693 37.054 128.808 35.6619 128.42 33.8438L130.849 33.2472C131.161 34.5445 131.772 35.5246 132.681 36.1875C133.6 36.8504 134.807 37.1818 136.303 37.1818C137.979 37.1818 139.319 36.8078 140.323 36.0597C141.327 35.3021 141.829 34.3551 141.829 33.2188C141.829 32.3381 141.535 31.5994 140.948 31.0028C140.361 30.3968 139.471 29.9517 138.278 29.6676L134.712 28.8153C132.818 28.3608 131.417 27.6411 130.508 26.6562C129.599 25.6714 129.144 24.4498 129.144 22.9915C129.144 21.7888 129.471 20.733 130.124 19.8239C130.778 18.9053 131.677 18.1856 132.823 17.6648C133.969 17.1439 135.276 16.8835 136.744 16.8835C138.742 16.8835 140.337 17.3381 141.531 18.2472C142.733 19.1468 143.6 20.3873 144.13 21.9688Z" fill="#101010"/>
<path fill-rule="evenodd" clip-rule="evenodd" d="M153 0H193V40H153V0ZM183.578 33.5327C181.724 33.5327 180.676 32.5657 179.87 31.2502L176.815 33.0248C177.919 35.2051 180.174 36.8686 183.665 36.8686C187.235 36.8686 189.893 35.0146 189.893 31.6305C189.893 28.4914 188.09 27.0952 184.897 25.7257L183.957 25.3232C182.344 24.6248 181.646 24.1683 181.646 23.0406C181.646 22.1283 182.343 21.4298 183.444 21.4298C184.524 21.4298 185.219 21.8851 185.863 23.0406L188.79 21.1613C187.552 18.9835 185.834 18.1517 183.444 18.1517C180.088 18.1517 177.94 20.2978 177.94 23.1168C177.94 26.1771 179.742 27.6248 182.454 28.7803L183.394 29.1835C185.108 29.9333 186.13 30.3898 186.13 31.6787C186.13 32.7543 185.135 33.5327 183.578 33.5327ZM169.011 33.5092C167.719 33.5092 167.182 32.6235 166.592 31.5759L163.532 33.4283C164.418 35.3041 166.161 36.8616 169.171 36.8616C172.502 36.8616 174.783 35.0902 174.783 31.1981V18.3663H171.025V31.1473C171.025 33.026 170.246 33.5092 169.011 33.5092Z" fill="#F0DB4F"/>
</svg>
