<svg width="51" height="60" viewBox="0 0 51 60" fill="none" xmlns="http://www.w3.org/2000/svg">
<g clip-path="url(#clip0_3_207)">
<path d="M49.2021 46.7582C48.3044 48.8545 47.2418 50.784 46.0107 52.558C44.3325 54.9765 42.9585 56.6505 41.8996 57.5801C40.2581 59.106 38.4993 59.8875 36.616 59.9319C35.2639 59.9319 33.6334 59.543 31.7354 58.7542C29.8312 57.969 28.0812 57.5801 26.4811 57.5801C24.803 57.5801 23.0032 57.969 21.0781 58.7542C19.15 59.543 17.5968 59.9541 16.4093 59.9949C14.6033 60.0726 12.8031 59.2689 11.0063 57.5801C9.85941 56.569 8.42492 54.8358 6.70647 52.3803C4.86271 49.7581 3.34688 46.7175 2.15935 43.2509C0.887549 39.5066 0.25 35.8808 0.25 32.3705C0.25 28.3495 1.10959 24.8815 2.83134 21.9753C4.18449 19.6409 5.98465 17.7995 8.23769 16.4477C10.4907 15.0958 12.9251 14.407 15.5468 14.3629C16.9813 14.3629 18.8624 14.8114 21.2001 15.6929C23.5312 16.5773 25.028 17.0258 25.6842 17.0258C26.1748 17.0258 27.8376 16.5014 30.6563 15.4558C33.322 14.4862 35.5717 14.0848 37.4147 14.2429C42.4089 14.6503 46.1609 16.6402 48.6561 20.2253C44.1896 22.9608 41.9802 26.7922 42.0241 31.7072C42.0644 35.5356 43.4385 38.7214 46.1389 41.251C47.3627 42.425 48.7294 43.3324 50.25 43.9768C49.9202 44.9435 49.5721 45.8694 49.2021 46.7582ZM37.7482 1.20033C37.7482 4.20102 36.6636 7.00275 34.5018 9.59601C31.893 12.6789 28.7375 14.4603 25.3156 14.1792C25.272 13.8192 25.2467 13.4403 25.2467 13.0422C25.2467 10.1615 26.4874 7.07868 28.6906 4.55801C29.7905 3.28175 31.1895 2.22056 32.8859 1.37403C34.5787 0.540132 36.1799 0.0789606 37.6859 0C37.7298 0.401136 37.7482 0.802346 37.7482 1.20033Z" fill="#101010"/>
</g>
<defs>
<clipPath id="clip0_3_207">
<rect width="50" height="60" fill="white" transform="translate(0.25)"/>
</clipPath>
</defs>
</svg>
