<svg width="218" height="42" viewBox="0 0 218 42" fill="none" xmlns="http://www.w3.org/2000/svg">
<path d="M0.235795 18.5824V15.7273C1.87405 15.7273 3.01042 15.4006 3.64489 14.7472C4.27936 14.0937 4.59659 13.0379 4.59659 11.5795V8.44034C4.59659 6.68845 4.83807 5.28693 5.32102 4.2358C5.81345 3.17519 6.49527 2.375 7.36648 1.83523C8.24716 1.29545 9.28883 0.935605 10.4915 0.75568C11.6941 0.575757 13.0104 0.485795 14.4403 0.485795V5.00284C13.3229 5.00284 12.4706 5.14962 11.8835 5.44318C11.3059 5.72727 10.9129 6.17235 10.7045 6.77841C10.4962 7.375 10.392 8.13258 10.392 9.05114V13.1989C10.392 13.9186 10.2595 14.6051 9.99432 15.2585C9.72917 15.9025 9.23674 16.4754 8.51705 16.9773C7.79735 17.4697 6.76989 17.8627 5.43466 18.1562C4.09943 18.4403 2.36648 18.5824 0.235795 18.5824ZM14.4403 36.4375C13.0104 36.4375 11.6941 36.3475 10.4915 36.1676C9.28883 35.9877 8.24716 35.6278 7.36648 35.0881C6.49527 34.5483 5.81345 33.7528 5.32102 32.7017C4.83807 31.6411 4.59659 30.2348 4.59659 28.483V25.3295C4.59659 23.8712 4.27936 22.8153 3.64489 22.1619C3.01042 21.5085 1.87405 21.1818 0.235795 21.1818V18.3267C2.36648 18.3267 4.09943 18.4735 5.43466 18.767C6.76989 19.0511 7.79735 19.4441 8.51705 19.946C9.23674 20.4384 9.72917 21.0114 9.99432 21.6648C10.2595 22.3087 10.392 22.9953 10.392 23.7244V27.8722C10.392 28.7812 10.4962 29.5388 10.7045 30.1449C10.9129 30.7415 11.3059 31.1866 11.8835 31.4801C12.4706 31.7642 13.3229 31.9062 14.4403 31.9062V36.4375ZM0.235795 21.1818V15.7273H5.33523V21.1818H0.235795ZM27.5433 3.90909H33.6229V24.1932C33.6229 26.0682 33.2015 27.697 32.3587 29.0795C31.5253 30.4621 30.3653 31.5275 28.8786 32.2756C27.3918 33.0237 25.6636 33.3977 23.6939 33.3977C21.942 33.3977 20.3511 33.09 18.9212 32.4744C17.5007 31.8494 16.3738 30.9025 15.5405 29.6335C14.7071 28.3551 14.2952 26.75 14.3047 24.8182H20.4268C20.4458 25.5852 20.602 26.2434 20.8956 26.7926C21.1986 27.3324 21.6106 27.7491 22.1314 28.0426C22.6617 28.3267 23.2867 28.4688 24.0064 28.4688C24.764 28.4688 25.4032 28.3078 25.924 27.9858C26.4543 27.6544 26.8568 27.1714 27.1314 26.5369C27.406 25.9025 27.5433 25.1212 27.5433 24.1932V3.90909ZM42.8161 33.4119C41.424 33.4119 40.1835 33.1705 39.0945 32.6875C38.0054 32.1951 37.1437 31.4706 36.5092 30.5142C35.8842 29.5483 35.5717 28.3456 35.5717 26.9062C35.5717 25.6941 35.7943 24.6761 36.2393 23.8523C36.6844 23.0284 37.2905 22.3655 38.0575 21.8636C38.8246 21.3617 39.6958 20.983 40.6712 20.7273C41.656 20.4716 42.6882 20.2917 43.7678 20.1875C45.0367 20.0549 46.0594 19.9318 46.8359 19.8182C47.6125 19.6951 48.1759 19.5152 48.5263 19.2784C48.8767 19.0417 49.0518 18.6913 49.0518 18.2273V18.142C49.0518 17.2424 48.7678 16.5464 48.1996 16.054C47.6409 15.5616 46.8454 15.3153 45.8132 15.3153C44.7242 15.3153 43.8577 15.5568 43.2138 16.0398C42.5698 16.5133 42.1437 17.1098 41.9354 17.8295L36.3388 17.375C36.6229 16.0492 37.1816 14.9034 38.0149 13.9375C38.8482 12.9621 39.9231 12.214 41.2393 11.6932C42.5651 11.1629 44.0992 10.8977 45.8416 10.8977C47.0537 10.8977 48.2138 11.0398 49.3217 11.3239C50.4392 11.608 51.4287 12.0483 52.2905 12.6449C53.1617 13.2415 53.8482 14.0085 54.3501 14.946C54.852 15.8741 55.103 16.9867 55.103 18.2841V33H49.3643V29.9744H49.1939C48.8435 30.6562 48.3748 31.2576 47.7876 31.7784C47.2005 32.2898 46.495 32.6922 45.6712 32.9858C44.8473 33.2699 43.8956 33.4119 42.8161 33.4119ZM44.549 29.2358C45.4392 29.2358 46.2251 29.0606 46.907 28.7102C47.5888 28.3504 48.1238 27.8674 48.5121 27.2614C48.9003 26.6553 49.0945 25.9687 49.0945 25.2017V22.8864C48.9051 23.0095 48.6447 23.1231 48.3132 23.2273C47.9912 23.322 47.6267 23.4119 47.2195 23.4972C46.8123 23.5729 46.4051 23.6439 45.9979 23.7102C45.5907 23.767 45.2214 23.8191 44.8899 23.8665C44.1797 23.9706 43.5594 24.1364 43.0291 24.3636C42.4988 24.5909 42.0869 24.8987 41.7933 25.2869C41.4998 25.6657 41.353 26.1392 41.353 26.7074C41.353 27.5312 41.6513 28.161 42.2479 28.5966C42.8539 29.0227 43.621 29.2358 44.549 29.2358ZM77.3572 11.1818L69.7294 33H62.9112L55.2834 11.1818H61.6754L66.2067 26.7926H66.4339L70.951 11.1818H77.3572ZM84.0895 33.4119C82.6974 33.4119 81.4569 33.1705 80.3679 32.6875C79.2789 32.1951 78.4171 31.4706 77.7827 30.5142C77.1577 29.5483 76.8452 28.3456 76.8452 26.9062C76.8452 25.6941 77.0677 24.6761 77.5128 23.8523C77.9579 23.0284 78.5639 22.3655 79.331 21.8636C80.098 21.3617 80.9692 20.983 81.9446 20.7273C82.9295 20.4716 83.9616 20.2917 85.0412 20.1875C86.3101 20.0549 87.3329 19.9318 88.1094 19.8182C88.8859 19.6951 89.4493 19.5152 89.7997 19.2784C90.1501 19.0417 90.3253 18.6913 90.3253 18.2273V18.142C90.3253 17.2424 90.0412 16.5464 89.473 16.054C88.9143 15.5616 88.1188 15.3153 87.0866 15.3153C85.9976 15.3153 85.1312 15.5568 84.4872 16.0398C83.8433 16.5133 83.4171 17.1098 83.2088 17.8295L77.6122 17.375C77.8963 16.0492 78.455 14.9034 79.2884 13.9375C80.1217 12.9621 81.1965 12.214 82.5128 11.6932C83.8385 11.1629 85.3726 10.8977 87.1151 10.8977C88.3272 10.8977 89.4872 11.0398 90.5952 11.3239C91.7126 11.608 92.7022 12.0483 93.5639 12.6449C94.4351 13.2415 95.1217 14.0085 95.6236 14.946C96.1255 15.8741 96.3764 16.9867 96.3764 18.2841V33H90.6378V29.9744H90.4673C90.117 30.6562 89.6482 31.2576 89.0611 31.7784C88.474 32.2898 87.7685 32.6922 86.9446 32.9858C86.1207 33.2699 85.169 33.4119 84.0895 33.4119ZM85.8224 29.2358C86.7126 29.2358 87.4986 29.0606 88.1804 28.7102C88.8622 28.3504 89.3973 27.8674 89.7855 27.2614C90.1738 26.6553 90.3679 25.9687 90.3679 25.2017V22.8864C90.1785 23.0095 89.9181 23.1231 89.5866 23.2273C89.2647 23.322 88.9001 23.4119 88.4929 23.4972C88.0857 23.5729 87.6785 23.6439 87.2713 23.7102C86.8641 23.767 86.4948 23.8191 86.1634 23.8665C85.4531 23.9706 84.8329 24.1364 84.3026 24.3636C83.7723 24.5909 83.3603 24.8987 83.0668 25.2869C82.7732 25.6657 82.6264 26.1392 82.6264 26.7074C82.6264 27.5312 82.9247 28.161 83.5213 28.5966C84.1274 29.0227 84.8944 29.2358 85.8224 29.2358ZM114.966 12.2756C114.852 11.1297 114.365 10.2396 113.503 9.60511C112.641 8.97064 111.472 8.65341 109.994 8.65341C108.991 8.65341 108.143 8.79545 107.452 9.07955C106.76 9.35417 106.23 9.73769 105.861 10.2301C105.501 10.7225 105.321 11.2812 105.321 11.9062C105.302 12.4271 105.411 12.8816 105.648 13.2699C105.894 13.6581 106.23 13.9943 106.656 14.2784C107.082 14.553 107.575 14.7945 108.134 15.0028C108.692 15.2017 109.289 15.3722 109.923 15.5142L112.537 16.1392C113.806 16.4233 114.971 16.8021 116.031 17.2756C117.092 17.7491 118.01 18.3314 118.787 19.0227C119.563 19.714 120.165 20.5284 120.591 21.4659C121.027 22.4034 121.249 23.4782 121.259 24.6903C121.249 26.4706 120.795 28.0142 119.895 29.321C119.005 30.6184 117.717 31.6269 116.031 32.3466C114.355 33.0568 112.333 33.4119 109.966 33.4119C107.617 33.4119 105.572 33.0521 103.83 32.3324C102.097 31.6127 100.742 30.5473 99.767 29.1364C98.8011 27.7159 98.2945 25.9593 98.2472 23.8665H104.199C104.265 24.8419 104.545 25.6562 105.037 26.3097C105.539 26.9536 106.206 27.4413 107.04 27.7727C107.883 28.0947 108.834 28.2557 109.895 28.2557C110.937 28.2557 111.841 28.1042 112.608 27.8011C113.384 27.4981 113.986 27.0767 114.412 26.5369C114.838 25.9972 115.051 25.3769 115.051 24.6761C115.051 24.0227 114.857 23.4735 114.469 23.0284C114.09 22.5833 113.531 22.2045 112.793 21.892C112.063 21.5795 111.169 21.2955 110.108 21.0398L106.94 20.2443C104.488 19.6477 102.551 18.715 101.131 17.446C99.7102 16.1771 99.0047 14.4678 99.0142 12.3182C99.0047 10.5568 99.4735 9.01799 100.42 7.7017C101.377 6.38542 102.688 5.35795 104.355 4.61932C106.022 3.88068 107.916 3.51136 110.037 3.51136C112.196 3.51136 114.08 3.88068 115.69 4.61932C117.31 5.35795 118.569 6.38542 119.469 7.7017C120.368 9.01799 120.832 10.5426 120.861 12.2756H114.966ZM133.14 33.4261C130.905 33.4261 128.983 32.9527 127.373 32.0057C125.772 31.0492 124.541 29.7235 123.68 28.0284C122.827 26.3333 122.401 24.3826 122.401 22.1761C122.401 19.9413 122.832 17.9811 123.694 16.2955C124.565 14.6004 125.801 13.2794 127.401 12.3324C129.002 11.3759 130.905 10.8977 133.112 10.8977C135.015 10.8977 136.682 11.2434 138.112 11.9347C139.541 12.6259 140.673 13.5966 141.506 14.8466C142.34 16.0966 142.799 17.5644 142.884 19.25H137.174C137.013 18.161 136.587 17.285 135.896 16.6222C135.214 15.9498 134.319 15.6136 133.211 15.6136C132.273 15.6136 131.454 15.8693 130.754 16.3807C130.062 16.8826 129.522 17.6165 129.134 18.5824C128.746 19.5483 128.552 20.7178 128.552 22.0909C128.552 23.483 128.741 24.6667 129.12 25.642C129.508 26.6174 130.053 27.3608 130.754 27.8722C131.454 28.3835 132.273 28.6392 133.211 28.6392C133.902 28.6392 134.522 28.4972 135.072 28.2131C135.63 27.929 136.09 27.517 136.45 26.9773C136.819 26.428 137.06 25.7699 137.174 25.0028H142.884C142.79 26.6695 142.335 28.1373 141.521 29.4062C140.716 30.6657 139.603 31.6506 138.183 32.3608C136.762 33.071 135.081 33.4261 133.14 33.4261ZM144.759 33V11.1818H150.625V14.9886H150.852C151.25 13.6345 151.918 12.6117 152.855 11.9205C153.793 11.2197 154.872 10.8693 156.094 10.8693C156.397 10.8693 156.723 10.8883 157.074 10.9261C157.424 10.964 157.732 11.0161 157.997 11.0824V16.4517C157.713 16.3665 157.32 16.2907 156.818 16.2244C156.316 16.1581 155.857 16.125 155.44 16.125C154.55 16.125 153.755 16.3191 153.054 16.7074C152.363 17.0862 151.813 17.6165 151.406 18.2983C151.009 18.9801 150.81 19.7661 150.81 20.6562V33H144.759ZM159.126 33V11.1818H165.177V33H159.126ZM162.165 8.36932C161.266 8.36932 160.494 8.07102 159.85 7.47443C159.216 6.86837 158.898 6.14394 158.898 5.30114C158.898 4.4678 159.216 3.75284 159.85 3.15625C160.494 2.55019 161.266 2.24716 162.165 2.24716C163.065 2.24716 163.832 2.55019 164.467 3.15625C165.111 3.75284 165.433 4.4678 165.433 5.30114C165.433 6.14394 165.111 6.86837 164.467 7.47443C163.832 8.07102 163.065 8.36932 162.165 8.36932ZM168.024 41.1818V11.1818H173.99V14.8466H174.26C174.525 14.2595 174.909 13.6629 175.411 13.0568C175.922 12.4413 176.585 11.9299 177.399 11.5227C178.223 11.1061 179.246 10.8977 180.467 10.8977C182.058 10.8977 183.526 11.3144 184.871 12.1477C186.215 12.9716 187.29 14.2169 188.095 15.8835C188.9 17.5407 189.303 19.6193 189.303 22.1193C189.303 24.553 188.91 26.608 188.124 28.2841C187.347 29.9508 186.286 31.215 184.942 32.0767C183.607 32.929 182.11 33.3551 180.453 33.3551C179.279 33.3551 178.28 33.161 177.456 32.7727C176.642 32.3845 175.974 31.8968 175.453 31.3097C174.932 30.7131 174.535 30.1117 174.26 29.5057H174.075V41.1818H168.024ZM173.947 22.0909C173.947 23.3883 174.127 24.5199 174.487 25.4858C174.847 26.4517 175.368 27.2045 176.05 27.7443C176.732 28.2746 177.56 28.5398 178.536 28.5398C179.52 28.5398 180.354 28.2699 181.036 27.7301C181.717 27.1809 182.233 26.4233 182.584 25.4574C182.944 24.482 183.124 23.3598 183.124 22.0909C183.124 20.8314 182.948 19.7235 182.598 18.767C182.248 17.8106 181.732 17.0625 181.05 16.5227C180.368 15.983 179.53 15.7131 178.536 15.7131C177.551 15.7131 176.717 15.9735 176.036 16.4943C175.363 17.0152 174.847 17.7538 174.487 18.7102C174.127 19.6667 173.947 20.7936 173.947 22.0909ZM202.942 11.1818V15.7273H189.803V11.1818H202.942ZM192.786 5.95455H198.837V26.2955C198.837 26.8542 198.922 27.2898 199.092 27.6023C199.263 27.9053 199.5 28.1184 199.803 28.2415C200.115 28.3646 200.475 28.4261 200.882 28.4261C201.166 28.4261 201.45 28.4025 201.734 28.3551C202.018 28.2983 202.236 28.2557 202.388 28.2273L203.339 32.7301C203.036 32.8248 202.61 32.9337 202.061 33.0568C201.512 33.1894 200.844 33.2699 200.058 33.2983C198.6 33.3551 197.321 33.161 196.223 32.7159C195.134 32.2708 194.286 31.5795 193.68 30.642C193.074 29.7045 192.776 28.5208 192.786 27.0909V5.95455ZM217.597 21.2102V24.0653C215.968 24.0653 214.831 24.392 214.188 25.0455C213.553 25.6989 213.236 26.7547 213.236 28.2131V31.3665C213.236 33.1184 212.99 34.5199 212.497 35.571C212.014 36.6316 211.332 37.4318 210.452 37.9716C209.58 38.5114 208.544 38.8712 207.341 39.0511C206.148 39.2311 204.831 39.321 203.392 39.321V34.7898C204.509 34.7898 205.357 34.643 205.935 34.3494C206.522 34.0653 206.92 33.6203 207.128 33.0142C207.336 32.4176 207.44 31.6648 207.44 30.7557V26.608C207.44 25.8788 207.573 25.1922 207.838 24.5483C208.103 23.8949 208.596 23.322 209.315 22.8295C210.035 22.3277 211.063 21.9347 212.398 21.6506C213.733 21.357 215.466 21.2102 217.597 21.2102ZM203.392 3.36932C204.831 3.36932 206.148 3.45928 207.341 3.6392C208.544 3.81913 209.58 4.17898 210.452 4.71875C211.332 5.25852 212.014 6.05871 212.497 7.11932C212.99 8.17045 213.236 9.57197 213.236 11.3239V14.4631C213.236 15.9214 213.553 16.9773 214.188 17.6307C214.831 18.2841 215.968 18.6108 217.597 18.6108V21.4659C215.466 21.4659 213.733 21.3239 212.398 21.0398C211.063 20.7462 210.035 20.3532 209.315 19.8608C208.596 19.3589 208.103 18.786 207.838 18.142C207.573 17.4886 207.44 16.8021 207.44 16.0824V11.9347C207.44 11.0161 207.336 10.2585 207.128 9.66193C206.92 9.05587 206.522 8.6108 205.935 8.3267C205.357 8.03314 204.509 7.88636 203.392 7.88636V3.36932ZM217.597 18.6108V24.0653H212.497V18.6108H217.597Z" fill="#101010"/>
</svg>
