<svg width="40" height="40" viewBox="0 0 40 40" fill="none" xmlns="http://www.w3.org/2000/svg">
    <path d="M31.1041 29.4374C29.7916 29.4062 28.5104 29.4062 27.1979 29.4374C26.9166 29.4374 26.8541 29.3749 26.8541 29.0937C26.8541 26.7812 26.8541 24.4374 26.8541 22.1249C26.8541 21.5937 26.8229 21.0624 26.6666 20.5624C26.1979 18.9374 24.3229 18.3437 22.9791 19.4374C22.2604 19.9999 21.9791 20.7812 21.9791 21.7187C21.9791 23.9062 21.9791 26.0937 21.9791 28.2812C21.9791 28.5624 21.9479 28.8437 21.9791 29.1562C22.0104 29.4062 21.8854 29.4687 21.6666 29.4374C20.3229 29.4374 19.0104 29.4374 17.6666 29.4374C17.4166 29.4374 17.3541 29.3749 17.3541 29.1249C17.3854 27.1562 17.3854 25.1874 17.3854 23.1874C17.3854 20.7499 17.3854 18.3124 17.3541 15.9062C17.3541 15.6249 17.4166 15.5624 17.6666 15.5624C19.0104 15.5624 20.3229 15.5624 21.6666 15.5624C21.9166 15.5624 21.9791 15.6249 21.9791 15.8749C21.9791 16.3749 21.9791 16.8749 21.9791 17.4687C22.0729 17.3749 22.1041 17.3437 22.1354 17.3124C23.3541 15.5312 25.0729 15.0312 27.1041 15.3437C29.4479 15.7187 30.9479 17.3437 31.3229 19.8437C31.4166 20.4374 31.4479 21.0312 31.4479 21.6249C31.4479 24.1249 31.4479 26.5937 31.4479 29.0937C31.4479 29.3437 31.3854 29.4374 31.1041 29.4374Z" fill="white"/>
    <path d="M14.8541 22.5C14.8541 24.6875 14.8541 26.875 14.8541 29.0625C14.8541 29.3438 14.7916 29.4375 14.5104 29.4375C13.1979 29.4062 11.8854 29.4375 10.5729 29.4375C10.3229 29.4375 10.2604 29.375 10.2604 29.125C10.2604 24.7188 10.2604 20.2812 10.2604 15.875C10.2604 15.6562 10.3229 15.5625 10.5729 15.5625C11.9166 15.5625 13.2604 15.5625 14.6041 15.5625C14.8854 15.5625 14.9166 15.6562 14.9166 15.9062C14.8541 18.0938 14.8541 20.2812 14.8541 22.5Z" fill="white"/>
    <path d="M15.0729 11.9375C14.7604 13.1875 13.4792 13.9063 12.0104 13.6563C10.4479 13.4063 9.57291 11.875 10.1354 10.375C10.5104 9.43752 11.4167 8.87502 12.5729 8.90627C14.3229 8.87502 15.4792 10.2813 15.0729 11.9375Z" fill="white"/>
</svg>
