<svg width="40" height="40" viewBox="0 0 40 40" fill="none" xmlns="http://www.w3.org/2000/svg">
<path d="M27.8066 16.4235L30.4611 11.8108C30.6109 11.5523 30.5203 11.2238 30.266 11.0735C30.0117 10.9233 29.6808 11.0106 29.5345 11.2692L26.8452 15.9413C24.7934 15.0013 22.4838 14.4771 20 14.4771C17.5162 14.4771 15.2066 15.0013 13.1548 15.9413L10.4655 11.2692C10.3157 11.0106 9.98823 10.9233 9.73045 11.0735C9.47267 11.2238 9.38558 11.5523 9.53537 11.8108L12.1898 16.4235C7.61244 18.9116 4.51207 23.5592 4 29H36C35.4879 23.5591 32.3875 18.9115 27.8066 16.4235ZM12.6532 24.4922C11.9112 24.4922 11.312 23.8877 11.312 23.1468C11.312 22.4025 11.9146 21.8015 12.6532 21.8015C13.3952 21.8015 13.9943 22.406 13.9943 23.1468C13.9978 23.8877 13.3952 24.4922 12.6532 24.4922ZM27.3434 24.4922C26.6014 24.4922 26.0022 23.8877 26.0022 23.1468C26.0022 22.4025 26.6048 21.8015 27.3434 21.8015C28.0854 21.8015 28.6845 22.406 28.6845 23.1468C28.688 23.8877 28.0854 24.4922 27.3434 24.4922Z" fill="#A4C439"/>
</svg>
