<svg width="40" height="40" viewBox="0 0 40 40" fill="none" xmlns="http://www.w3.org/2000/svg">
<path d="M33.4341 28.9377C32.9494 30.0557 32.3756 31.0848 31.7108 32.031C30.8046 33.3208 30.0626 34.2136 29.4908 34.7094C28.6044 35.5232 27.6546 35.94 26.6376 35.9637C25.9075 35.9637 25.027 35.7563 24.0021 35.3355C22.9738 34.9168 22.0289 34.7094 21.1648 34.7094C20.2586 34.7094 19.2867 34.9168 18.2472 35.3355C17.206 35.7563 16.3673 35.9755 15.726 35.9973C14.7508 36.0387 13.7787 35.6101 12.8084 34.7094C12.1891 34.1701 11.4145 33.2457 10.4865 31.9361C9.49086 30.5377 8.67231 28.916 8.03105 27.0672C7.34428 25.0702 7 23.1364 7 21.2643C7 19.1197 7.46418 17.2701 8.39392 15.7201C9.12462 14.4751 10.0967 13.493 11.3134 12.7721C12.53 12.0511 13.8446 11.6837 15.2603 11.6602C16.0349 11.6602 17.0507 11.8994 18.3131 12.3695C19.5718 12.8412 20.3801 13.0804 20.7345 13.0804C20.9994 13.0804 21.8973 12.8007 23.4194 12.2431C24.8589 11.726 26.0737 11.5119 27.069 11.5962C29.7658 11.8135 31.7919 12.8748 33.1393 14.7868C30.7274 16.2458 29.5343 18.2891 29.558 20.9105C29.5798 22.9523 30.3218 24.6514 31.78 26.0005C32.4409 26.6267 33.1789 27.1106 34 27.4543C33.8219 27.9698 33.634 28.4637 33.4341 28.9377ZM27.249 4.64018C27.249 6.24054 26.6633 7.7348 25.496 9.11787C24.0872 10.7621 22.3832 11.7122 20.5354 11.5622C20.5119 11.3702 20.4982 11.1682 20.4982 10.9558C20.4982 9.41949 21.1682 7.77529 22.3579 6.43094C22.9519 5.75027 23.7073 5.1843 24.6234 4.73282C25.5375 4.28807 26.4022 4.04211 27.2154 4C27.2391 4.21394 27.249 4.42792 27.249 4.64018Z" fill="white"/>
</svg>
