<svg width="40" height="40" viewBox="0 0 40 40" fill="none" xmlns="http://www.w3.org/2000/svg">
<path d="M20 23.2057C21.7721 23.2057 23.2087 21.7705 23.2087 20C23.2087 18.2296 21.7721 16.7943 20 16.7943C18.2278 16.7943 16.7913 18.2296 16.7913 20C16.7913 21.7705 18.2278 23.2057 20 23.2057Z" fill="#61DAFB"/>
<path d="M20 26.5677C29.5089 26.5677 37.2174 23.6272 37.2174 19.9999C37.2174 16.3726 29.5089 13.4321 20 13.4321C10.4911 13.4321 2.78259 16.3726 2.78259 19.9999C2.78259 23.6272 10.4911 26.5677 20 26.5677Z" stroke="#61DAFB" stroke-width="2"/>
<path d="M14.3068 23.2838C19.0613 31.5111 25.4644 36.7104 28.6087 34.8968C31.7529 33.0831 30.4476 24.9433 25.6932 16.716C20.9387 8.48875 14.5355 3.28947 11.3913 5.10311C8.24703 6.91676 9.55235 15.0565 14.3068 23.2838Z" stroke="#61DAFB" stroke-width="2"/>
<path d="M14.3068 16.716C9.55235 24.9433 8.24703 33.0831 11.3913 34.8967C14.5355 36.7104 20.9387 31.5111 25.6932 23.2838C30.4476 15.0565 31.7529 6.91671 28.6087 5.10306C25.4644 3.28942 19.0613 8.4887 14.3068 16.716Z" stroke="#61DAFB" stroke-width="2"/>
</svg>
