<svg width="170" height="40" viewBox="0 0 170 40" fill="none" xmlns="http://www.w3.org/2000/svg">
<path d="M20.4077 6.66675H10.0194L14.0209 10.6721H19.2453V33.3334H21.4016H23.5577V10.6721H32.0768L36.0784 6.66675H20.4077Z" fill="white"/>
<path d="M18.001 27.1655H7.92168L3.92151 31.1709H18.001V27.1655Z" fill="white"/>
<path d="M6.04006 18.8402C6.69345 19.4949 7.45231 20.0122 8.31547 20.3914C9.14871 20.7581 10.0424 20.9476 10.9978 20.9602C11.013 20.9604 14.3193 20.9536 18.001 20.946V16.9067C14.3216 16.9178 10.9667 16.9265 10.9459 16.9218C10.0058 16.7074 9.31819 16.3455 8.88435 15.8362C8.42643 15.2999 8.19771 14.6254 8.19771 13.8137C8.19771 12.924 8.4461 12.1779 8.94311 11.5754C9.43965 10.9734 10.2114 10.672 11.2578 10.672H12.42L8.64037 6.88867C8.36171 6.96538 8.08961 7.06059 7.82501 7.17715C7.05328 7.51776 6.37963 8.0019 5.80467 8.63015C5.22899 9.25852 4.7712 10.0113 4.43151 10.8882C4.09135 11.7656 3.92151 12.7405 3.92151 13.8137C3.92151 14.7826 4.11102 15.6987 4.49039 16.5627C4.86917 17.4264 5.38596 18.1861 6.04006 18.8402Z" fill="white"/>
<path d="M35.4898 21.275C35.0975 20.4111 34.5742 19.6521 33.9207 18.9975C33.2667 18.3432 32.5017 17.8259 31.6256 17.4463C30.7663 17.0745 29.8634 16.8843 28.9168 16.8769C28.8979 16.8768 27.4719 16.8767 27.4527 16.8767C27.4527 16.8767 26.3185 16.8805 24.6458 16.886V20.9322C26.5516 20.9283 27.8754 20.9255 27.8754 20.9255C28.3024 20.9278 28.9011 20.9302 28.9123 20.9327C29.9051 21.1444 30.6265 21.5137 31.0763 22.0407C31.5337 22.5776 31.7628 23.2385 31.7628 24.024C31.7628 24.9406 31.5142 25.6928 31.0176 26.2818C30.5204 26.871 29.7359 27.1656 28.6636 27.1656H24.6458V31.171H29.6445C30.5074 31.171 31.3313 31.0008 32.1161 30.6605C32.9005 30.3206 33.5872 29.8357 34.1757 29.2075C34.7642 28.5791 35.2283 27.8269 35.5683 26.9494C35.9079 26.0726 36.0783 25.0977 36.0783 24.024C36.0783 23.0556 35.8823 22.139 35.4898 21.275Z" fill="white"/>
<path d="M63.6558 11.3984V14.7096H58.6835V28.6515H54.9721V14.7096H50V11.3984H63.6558Z" fill="white"/>
<path d="M66.0348 28.6515V11.3984H77.1688V14.6598H69.7462V18.0457H76.3362V21.2324H69.7462V25.3902H77.716V28.6515H66.0348Z" fill="white"/>
<path d="M87.9698 29C85.2894 29 83.2473 28.22 81.8436 26.6598C80.4401 25.0996 79.7382 22.8839 79.7382 20.0124C79.7382 18.5851 79.9524 17.3112 80.3805 16.1908C80.8088 15.0704 81.3957 14.1244 82.1411 13.3526C82.8865 12.5809 83.7746 11.9958 84.8057 11.5975C85.8365 11.1991 86.9547 11 88.1602 11C88.858 11 89.4923 11.0538 90.0634 11.1618C90.6343 11.2696 91.1339 11.3942 91.5622 11.5353C91.9904 11.6764 92.3473 11.8215 92.6328 11.9709C92.9182 12.1202 93.1245 12.2364 93.2513 12.3195L92.1807 15.4565C91.6732 15.1743 91.0824 14.9335 90.4083 14.7344C89.7343 14.5352 88.969 14.4357 88.1126 14.4357C87.5415 14.4357 86.9825 14.5352 86.4352 14.7344C85.8881 14.9335 85.4044 15.253 84.9841 15.6928C84.5638 16.1328 84.2267 16.7012 83.9729 17.3983C83.7192 18.0954 83.5924 18.9418 83.5924 19.9378C83.5924 20.7344 83.6756 21.4771 83.8421 22.166C84.0087 22.8548 84.2783 23.4481 84.651 23.9461C85.0237 24.4439 85.5114 24.8381 86.1141 25.1287C86.7169 25.419 87.4464 25.5643 88.3028 25.5643C88.8421 25.5643 89.3259 25.531 89.7541 25.4647C90.1823 25.3983 90.5629 25.3196 90.896 25.2283C91.2291 25.1368 91.5225 25.0332 91.7762 24.917C92.0301 24.8008 92.2601 24.693 92.4662 24.5934L93.4892 27.7054C92.9659 28.0372 92.2283 28.3362 91.2767 28.6016C90.3251 28.8673 89.2228 29 87.9698 29Z" fill="white"/>
<path d="M108.596 11.3984V14.7096H103.624V28.6515H99.9125V14.7096H94.9404V11.3984H108.596Z" fill="white"/>
<path d="M115.472 25.6888C115.995 25.6888 116.427 25.6432 116.768 25.5519C117.109 25.4607 117.383 25.3361 117.589 25.1785C117.795 25.0206 117.938 24.8341 118.017 24.6183C118.097 24.4024 118.136 24.1617 118.136 23.8963C118.136 23.3319 117.883 22.863 117.375 22.4897C116.867 22.1162 115.995 21.7137 114.758 21.2822C114.219 21.0829 113.679 20.8547 113.14 20.5975C112.601 20.3402 112.117 20.0165 111.689 19.6265C111.261 19.2365 110.912 18.7634 110.642 18.2074C110.373 17.6514 110.238 16.975 110.238 16.1785C110.238 15.3817 110.381 14.6639 110.666 14.0248C110.951 13.3859 111.356 12.8422 111.879 12.3942C112.403 11.946 113.037 11.6016 113.783 11.3609C114.528 11.1204 115.369 11 116.304 11C117.415 11 118.374 11.1244 119.183 11.3735C119.992 11.6224 120.658 11.8962 121.182 12.1949L120.111 15.2572C119.651 15.0083 119.139 14.7883 118.576 14.5975C118.013 14.4066 117.335 14.3112 116.542 14.3112C115.654 14.3112 115.016 14.4399 114.627 14.697C114.239 14.9543 114.044 15.3484 114.044 15.8795C114.044 16.195 114.116 16.4605 114.258 16.6763C114.401 16.8921 114.603 17.087 114.865 17.2614C115.127 17.4356 115.428 17.5934 115.769 17.7345C116.11 17.8754 116.487 18.0207 116.899 18.1701C117.756 18.502 118.501 18.8298 119.135 19.1534C119.77 19.4771 120.297 19.8547 120.718 20.2864C121.138 20.7178 121.451 21.224 121.657 21.8049C121.863 22.3859 121.967 23.0913 121.967 23.9212C121.967 25.531 121.427 26.7801 120.349 27.668C119.27 28.556 117.645 29 115.472 29C114.742 29 114.084 28.9544 113.497 28.8631C112.91 28.7718 112.391 28.6598 111.939 28.5269C111.487 28.3942 111.098 28.2531 110.773 28.1038C110.448 27.9543 110.174 27.8132 109.952 27.6805L110.999 24.5934C111.491 24.8756 112.098 25.1286 112.819 25.3527C113.541 25.5768 114.425 25.6888 115.472 25.6888Z" fill="white"/>
<path d="M127.938 20.0124C127.938 20.8589 128.037 21.6224 128.235 22.303C128.434 22.9833 128.719 23.5684 129.092 24.0581C129.465 24.5477 129.921 24.9254 130.46 25.1908C130.999 25.4565 131.618 25.5892 132.315 25.5892C132.997 25.5892 133.612 25.4565 134.159 25.1908C134.706 24.9254 135.166 24.5477 135.539 24.0581C135.912 23.5684 136.197 22.9833 136.396 22.303C136.594 21.6224 136.693 20.8589 136.693 20.0124C136.693 19.166 136.594 18.3983 136.396 17.7096C136.197 17.0207 135.912 16.4316 135.539 15.9419C135.166 15.4523 134.706 15.0746 134.159 14.8092C133.612 14.5435 132.997 14.4108 132.315 14.4108C131.618 14.4108 130.999 14.5477 130.46 14.8215C129.921 15.0954 129.465 15.4772 129.092 15.9668C128.719 16.4565 128.434 17.0456 128.235 17.7345C128.037 18.4232 127.938 19.1825 127.938 20.0124ZM140.523 20.0124C140.523 21.4897 140.313 22.7884 139.893 23.9086C139.472 25.029 138.898 25.9668 138.168 26.7219C137.438 27.4772 136.57 28.0456 135.563 28.4274C134.556 28.8091 133.473 29 132.315 29C131.189 29 130.127 28.8091 129.128 28.4274C128.128 28.0456 127.256 27.4772 126.511 26.7219C125.765 25.9668 125.178 25.029 124.75 23.9086C124.322 22.7884 124.108 21.4897 124.108 20.0124C124.108 18.5352 124.33 17.2365 124.774 16.1161C125.218 14.9959 125.817 14.0539 126.57 13.2904C127.323 12.5269 128.196 11.9544 129.187 11.5726C130.178 11.1909 131.221 11 132.315 11C133.442 11 134.504 11.1909 135.503 11.5726C136.503 11.9544 137.375 12.5269 138.12 13.2904C138.866 14.0539 139.453 14.9959 139.881 16.1161C140.309 17.2365 140.523 18.5352 140.523 20.0124Z" fill="white"/>
<path d="M143.616 28.6515V11.3984H154.655V14.6598H147.327V18.2697H153.846V21.5312H147.327V28.6515H143.616Z" fill="white"/>
<path d="M170 11.3984V14.7096H165.028V28.6515H161.316V14.7096H156.344V11.3984H170Z" fill="white"/>
</svg>
