<svg width="345" height="80" viewBox="0 0 345 80" fill="none" xmlns="http://www.w3.org/2000/svg">
<g clip-path="url(#clip0_3_223)">
<path d="M45.5 48.0144C49.9303 48.0144 53.5217 44.4263 53.5217 40.0001C53.5217 35.574 49.9303 31.9858 45.5 31.9858C41.0697 31.9858 37.4783 35.574 37.4783 40.0001C37.4783 44.4263 41.0697 48.0144 45.5 48.0144Z" fill="#61DAFB"/>
<path d="M45.5 56.4193C69.2723 56.4193 88.5435 49.0681 88.5435 39.9998C88.5435 30.9316 69.2723 23.5803 45.5 23.5803C21.7277 23.5803 2.45652 30.9316 2.45652 39.9998C2.45652 49.0681 21.7277 56.4193 45.5 56.4193Z" stroke="#61DAFB" stroke-width="3"/>
<path d="M31.2671 48.2097C43.1532 68.7779 59.1611 81.7761 67.0217 77.242C74.8824 72.7079 71.6191 52.3584 59.7329 31.7902C47.8468 11.2219 31.8389 -1.77628 23.9783 2.75784C16.1176 7.29196 19.3809 27.6414 31.2671 48.2097Z" stroke="#61DAFB" stroke-width="3"/>
<path d="M31.2671 31.7901C19.3809 52.3583 16.1176 72.7078 23.9783 77.2419C31.8389 81.776 47.8468 68.7778 59.7329 48.2096C71.6191 27.6414 74.8824 7.2919 67.0217 2.75778C59.1611 -1.77634 43.1532 11.2219 31.2671 31.7901Z" stroke="#61DAFB" stroke-width="3"/>
</g>
<path d="M109.364 55V25.9091H118.753C120.817 25.9091 122.541 26.2831 123.923 27.0312C125.315 27.7699 126.362 28.7973 127.062 30.1136C127.773 31.4205 128.128 32.9214 128.128 34.6165C128.128 36.3116 127.773 37.8078 127.062 39.1051C126.362 40.4025 125.32 41.4157 123.938 42.1449C122.555 42.8741 120.841 43.2386 118.795 43.2386H110.798V40.8097H118.724C120.24 40.8097 121.499 40.5587 122.503 40.0568C123.516 39.5549 124.269 38.84 124.761 37.9119C125.263 36.9839 125.514 35.8854 125.514 34.6165C125.514 33.3475 125.263 32.2396 124.761 31.2926C124.259 30.3362 123.502 29.5975 122.489 29.0767C121.485 28.5559 120.216 28.2955 118.682 28.2955H112.02V55H109.364ZM122.19 41.875L129.349 55H126.281L119.193 41.875H122.19ZM142.659 55.4545C140.623 55.4545 138.862 54.9811 137.375 54.0341C135.888 53.0777 134.738 51.7566 133.923 50.071C133.118 48.3759 132.716 46.4252 132.716 44.2188C132.716 42.0218 133.118 40.071 133.923 38.3665C134.738 36.6525 135.86 35.3125 137.29 34.3466C138.729 33.3712 140.391 32.8835 142.276 32.8835C143.459 32.8835 144.6 33.1013 145.699 33.5369C146.797 33.9631 147.782 34.6212 148.653 35.5114C149.534 36.392 150.23 37.5047 150.741 38.8494C151.253 40.1847 151.509 41.7661 151.509 43.5938V44.8438H134.463V42.6136H148.923C148.923 41.2121 148.639 39.9527 148.071 38.8352C147.512 37.7083 146.731 36.8182 145.727 36.1648C144.733 35.5114 143.582 35.1847 142.276 35.1847C140.893 35.1847 139.676 35.554 138.625 36.2926C137.574 37.0312 136.75 38.0066 136.153 39.2188C135.566 40.4309 135.268 41.7566 135.259 43.196V44.5312C135.259 46.2642 135.557 47.7794 136.153 49.0767C136.759 50.3646 137.616 51.3636 138.724 52.0739C139.832 52.7841 141.144 53.1392 142.659 53.1392C143.691 53.1392 144.596 52.9782 145.372 52.6562C146.158 52.3343 146.816 51.9034 147.347 51.3636C147.886 50.8144 148.294 50.2131 148.568 49.5597L150.969 50.3409C150.637 51.2595 150.093 52.107 149.335 52.8835C148.587 53.66 147.65 54.285 146.523 54.7585C145.405 55.2225 144.117 55.4545 142.659 55.4545ZM163.174 55.4972C161.858 55.4972 160.655 55.2415 159.566 54.7301C158.477 54.2093 157.611 53.4612 156.967 52.4858C156.323 51.5009 156.001 50.3078 156.001 48.9062C156.001 47.8267 156.204 46.9176 156.612 46.179C157.019 45.4403 157.596 44.8343 158.344 44.3608C159.093 43.8873 159.978 43.5133 161.001 43.2386C162.023 42.964 163.15 42.7509 164.381 42.5994C165.603 42.4479 166.635 42.3153 167.478 42.2017C168.33 42.0881 168.979 41.9081 169.424 41.6619C169.869 41.4157 170.092 41.018 170.092 40.4688V39.9574C170.092 38.4706 169.647 37.3011 168.756 36.4489C167.876 35.5871 166.607 35.1562 164.95 35.1562C163.378 35.1562 162.094 35.5019 161.1 36.1932C160.115 36.8845 159.424 37.6989 159.026 38.6364L156.626 37.7699C157.118 36.5767 157.8 35.625 158.671 34.9148C159.542 34.1951 160.518 33.679 161.597 33.3665C162.677 33.0445 163.771 32.8835 164.879 32.8835C165.712 32.8835 166.578 32.9924 167.478 33.2102C168.387 33.428 169.23 33.8068 170.006 34.3466C170.783 34.8769 171.413 35.6203 171.896 36.5767C172.379 37.5237 172.62 38.7263 172.62 40.1847V55H170.092V51.5483H169.935C169.632 52.1922 169.183 52.8172 168.586 53.4233C167.989 54.0294 167.241 54.5265 166.342 54.9148C165.442 55.303 164.386 55.4972 163.174 55.4972ZM163.515 53.1818C164.86 53.1818 166.024 52.8835 167.009 52.2869C167.994 51.6903 168.752 50.8996 169.282 49.9148C169.822 48.9205 170.092 47.8267 170.092 46.6335V43.4801C169.902 43.66 169.585 43.821 169.14 43.9631C168.704 44.1051 168.198 44.233 167.62 44.3466C167.052 44.4508 166.484 44.5407 165.915 44.6165C165.347 44.6922 164.836 44.7585 164.381 44.8153C163.15 44.9669 162.099 45.2036 161.228 45.5256C160.357 45.8475 159.689 46.2926 159.225 46.8608C158.761 47.4195 158.529 48.1392 158.529 49.0199C158.529 50.3456 159.003 51.3731 159.95 52.1023C160.897 52.822 162.085 53.1818 163.515 53.1818ZM187.869 55.4545C185.918 55.4545 184.218 54.9669 182.769 53.9915C181.33 53.0161 180.212 51.6809 179.417 49.9858C178.621 48.2907 178.224 46.3589 178.224 44.1903C178.224 42.0028 178.626 40.0568 179.431 38.3523C180.246 36.6477 181.372 35.3125 182.812 34.3466C184.251 33.3712 185.923 32.8835 187.826 32.8835C189.284 32.8835 190.605 33.1676 191.789 33.7358C192.973 34.2945 193.948 35.0852 194.715 36.108C195.492 37.1212 195.979 38.3049 196.178 39.6591H193.621C193.356 38.428 192.717 37.3769 191.704 36.5057C190.7 35.625 189.422 35.1847 187.869 35.1847C186.477 35.1847 185.246 35.5634 184.175 36.321C183.105 37.0691 182.267 38.1155 181.661 39.4602C181.065 40.7955 180.766 42.3437 180.766 44.1051C180.766 45.8759 181.06 47.4432 181.647 48.8068C182.234 50.161 183.058 51.2216 184.119 51.9886C185.189 52.7557 186.439 53.1392 187.869 53.1392C188.835 53.1392 189.715 52.9593 190.511 52.5994C191.316 52.2301 191.988 51.7093 192.528 51.0369C193.077 50.3646 193.446 49.5644 193.636 48.6364H196.192C196.003 49.9527 195.534 51.1269 194.786 52.1591C194.048 53.1818 193.086 53.9867 191.903 54.5739C190.728 55.161 189.384 55.4545 187.869 55.4545ZM210.205 33.1818V35.3835H199.793V33.1818H210.205ZM203.046 27.9545H205.589V49.304C205.589 50.2131 205.745 50.928 206.058 51.4489C206.37 51.9602 206.777 52.3248 207.279 52.5426C207.781 52.7509 208.316 52.8551 208.884 52.8551C209.216 52.8551 209.5 52.8362 209.737 52.7983C209.973 52.7509 210.182 52.7036 210.362 52.6562L210.901 54.9432C210.655 55.0379 210.352 55.1231 209.992 55.1989C209.632 55.2841 209.187 55.3267 208.657 55.3267C207.729 55.3267 206.834 55.1231 205.972 54.7159C205.12 54.3087 204.419 53.7027 203.87 52.8977C203.321 52.0928 203.046 51.0938 203.046 49.9006V27.9545ZM250.379 25.9091V55H247.794L230.607 30.6392H230.379V55H227.723V25.9091H230.294L247.538 50.2983H247.766V25.9091H250.379ZM263.682 55.4972C262.366 55.4972 261.163 55.2415 260.074 54.7301C258.985 54.2093 258.118 53.4612 257.474 52.4858C256.83 51.5009 256.509 50.3078 256.509 48.9062C256.509 47.8267 256.712 46.9176 257.119 46.179C257.527 45.4403 258.104 44.8343 258.852 44.3608C259.6 43.8873 260.486 43.5133 261.509 43.2386C262.531 42.964 263.658 42.7509 264.889 42.5994C266.111 42.4479 267.143 42.3153 267.986 42.2017C268.838 42.0881 269.487 41.9081 269.932 41.6619C270.377 41.4157 270.599 41.018 270.599 40.4688V39.9574C270.599 38.4706 270.154 37.3011 269.264 36.4489C268.384 35.5871 267.115 35.1562 265.457 35.1562C263.885 35.1562 262.602 35.5019 261.608 36.1932C260.623 36.8845 259.932 37.6989 259.534 38.6364L257.134 37.7699C257.626 36.5767 258.308 35.625 259.179 34.9148C260.05 34.1951 261.026 33.679 262.105 33.3665C263.185 33.0445 264.278 32.8835 265.386 32.8835C266.22 32.8835 267.086 32.9924 267.986 33.2102C268.895 33.428 269.738 33.8068 270.514 34.3466C271.291 34.8769 271.92 35.6203 272.403 36.5767C272.886 37.5237 273.128 38.7263 273.128 40.1847V55H270.599V51.5483H270.443C270.14 52.1922 269.69 52.8172 269.094 53.4233C268.497 54.0294 267.749 54.5265 266.849 54.9148C265.95 55.303 264.894 55.4972 263.682 55.4972ZM264.023 53.1818C265.367 53.1818 266.532 52.8835 267.517 52.2869C268.502 51.6903 269.259 50.8996 269.79 49.9148C270.33 48.9205 270.599 47.8267 270.599 46.6335V43.4801C270.41 43.66 270.093 43.821 269.648 43.9631C269.212 44.1051 268.705 44.233 268.128 44.3466C267.56 44.4508 266.991 44.5407 266.423 44.6165C265.855 44.6922 265.344 44.7585 264.889 44.8153C263.658 44.9669 262.607 45.2036 261.736 45.5256C260.865 45.8475 260.197 46.2926 259.733 46.8608C259.269 47.4195 259.037 48.1392 259.037 49.0199C259.037 50.3456 259.51 51.3731 260.457 52.1023C261.404 52.822 262.593 53.1818 264.023 53.1818ZM288.447 33.1818V35.3835H278.036V33.1818H288.447ZM281.288 27.9545H283.831V49.304C283.831 50.2131 283.987 50.928 284.3 51.4489C284.612 51.9602 285.019 52.3248 285.521 52.5426C286.023 52.7509 286.558 52.8551 287.126 52.8551C287.458 52.8551 287.742 52.8362 287.979 52.7983C288.215 52.7509 288.424 52.7036 288.604 52.6562L289.143 54.9432C288.897 55.0379 288.594 55.1231 288.234 55.1989C287.875 55.2841 287.429 55.3267 286.899 55.3267C285.971 55.3267 285.076 55.1231 284.214 54.7159C283.362 54.3087 282.661 53.7027 282.112 52.8977C281.563 52.0928 281.288 51.0938 281.288 49.9006V27.9545ZM294.218 55V33.1818H296.761V55H294.218ZM295.511 29.4318C294.99 29.4318 294.545 29.2566 294.175 28.9062C293.806 28.5464 293.621 28.1155 293.621 27.6136C293.621 27.1117 293.806 26.6856 294.175 26.3352C294.545 25.9754 294.99 25.7955 295.511 25.7955C296.031 25.7955 296.477 25.9754 296.846 26.3352C297.215 26.6856 297.4 27.1117 297.4 27.6136C297.4 28.1155 297.215 28.5464 296.846 28.9062C296.477 29.2566 296.031 29.4318 295.511 29.4318ZM320.337 33.1818L312.368 55H309.669L301.7 33.1818H304.442L310.919 51.6619H311.118L317.595 33.1818H320.337ZM333.323 55.4545C331.287 55.4545 329.526 54.9811 328.039 54.0341C326.552 53.0777 325.402 51.7566 324.587 50.071C323.782 48.3759 323.38 46.4252 323.38 44.2188C323.38 42.0218 323.782 40.071 324.587 38.3665C325.402 36.6525 326.524 35.3125 327.954 34.3466C329.393 33.3712 331.055 32.8835 332.94 32.8835C334.123 32.8835 335.264 33.1013 336.363 33.5369C337.461 33.9631 338.446 34.6212 339.317 35.5114C340.198 36.392 340.894 37.5047 341.406 38.8494C341.917 40.1847 342.173 41.7661 342.173 43.5938V44.8438H325.127V42.6136H339.587C339.587 41.2121 339.303 39.9527 338.735 38.8352C338.176 37.7083 337.395 36.8182 336.391 36.1648C335.397 35.5114 334.246 35.1847 332.94 35.1847C331.557 35.1847 330.34 35.554 329.289 36.2926C328.238 37.0312 327.414 38.0066 326.817 39.2188C326.23 40.4309 325.932 41.7566 325.923 43.196V44.5312C325.923 46.2642 326.221 47.7794 326.817 49.0767C327.424 50.3646 328.281 51.3636 329.388 52.0739C330.496 52.7841 331.808 53.1392 333.323 53.1392C334.355 53.1392 335.26 52.9782 336.036 52.6562C336.822 52.3343 337.48 51.9034 338.011 51.3636C338.55 50.8144 338.958 50.2131 339.232 49.5597L341.633 50.3409C341.301 51.2595 340.757 52.107 339.999 52.8835C339.251 53.66 338.314 54.285 337.187 54.7585C336.069 55.2225 334.781 55.4545 333.323 55.4545Z" fill="#101010"/>
<defs>
<clipPath id="clip0_3_223">
<rect width="90" height="80" fill="white" transform="translate(0.5)"/>
</clipPath>
</defs>
</svg>
