<svg width="179" height="80" viewBox="0 0 179 80" fill="none" xmlns="http://www.w3.org/2000/svg">
<path fill-rule="evenodd" clip-rule="evenodd" d="M48.1024 1.32715C47.5348 1.32715 47.0078 1.44851 46.5212 1.61032C47.5551 2.298 48.1227 3.20819 48.4065 4.23972C48.4268 4.38131 48.4673 4.48244 48.4876 4.62402C48.5079 4.74538 48.5281 4.86674 48.5281 4.9881C48.6092 6.768 48.0618 6.99049 47.6767 8.04225C47.0888 9.39741 47.251 10.8537 47.9605 12.0268C48.0213 12.1684 48.1024 12.3302 48.2038 12.4718C47.4334 7.35456 51.7107 6.58596 52.5012 4.9881C52.5621 3.59248 51.4066 2.66208 50.4944 2.01484C49.6227 1.48896 48.8322 1.32715 48.1024 1.32715ZM54.5486 2.48004C54.4675 2.94525 54.5283 2.82389 54.5081 3.0666C54.4878 3.22841 54.4878 3.43068 54.4676 3.59248C54.4271 3.75429 54.3865 3.9161 54.3257 4.07792C54.2852 4.23972 54.2244 4.40153 54.1636 4.56334C54.0824 4.72516 54.0217 4.86673 53.9406 5.02854C53.8798 5.10948 53.8392 5.19035 53.7784 5.27126C53.7379 5.33194 53.6973 5.39262 53.6568 5.4533C53.5554 5.59489 53.4541 5.73646 53.3527 5.85782C53.2311 5.97918 53.1297 6.12076 52.9878 6.2219V6.24215C52.8662 6.34328 52.7446 6.46464 52.6027 6.56577C52.177 6.88938 51.6905 7.1321 51.2445 7.43549C51.1026 7.53662 50.9607 7.61753 50.8391 7.73889C50.6972 7.84002 50.5755 7.94114 50.4539 8.0625C50.312 8.18386 50.2107 8.30522 50.089 8.44681C49.9877 8.56817 49.8661 8.70974 49.785 8.85133C49.6836 8.99291 49.5823 9.1345 49.5012 9.27608C49.4201 9.43788 49.3593 9.57947 49.2782 9.74128C49.2174 9.90308 49.1566 10.0447 49.116 10.2065C49.0552 10.3885 49.0147 10.5503 48.9741 10.7121C48.9538 10.7931 48.9538 10.8942 48.9336 10.9751C48.9133 11.056 48.9133 11.1369 48.8931 11.2178C48.8931 11.3796 48.8728 11.5616 48.8728 11.7234C48.8728 11.8448 48.8728 11.9662 48.8931 12.0875C48.8931 12.2493 48.9134 12.4111 48.9539 12.5932C48.9742 12.755 49.0147 12.9168 49.0553 13.0786C49.1161 13.2404 49.1566 13.4022 49.2174 13.564C49.258 13.6652 49.3188 13.7663 49.3593 13.8472L44.697 12.0471C43.9064 11.8246 43.1361 11.6223 42.3455 11.4403C41.9198 11.3392 41.4941 11.238 41.0684 11.1369C39.8521 10.8942 38.6156 10.7121 37.3791 10.5908C37.3385 10.5908 37.3182 10.5705 37.2777 10.5705C36.0614 10.4492 34.8654 10.3885 33.6492 10.3885C32.7572 10.3885 31.8653 10.4289 30.9936 10.4896C29.7571 10.5706 28.5205 10.7323 27.284 10.9346C26.9799 10.975 26.6758 11.0357 26.3718 11.0964C25.7434 11.2178 25.1352 11.3594 24.5474 11.5009C24.2433 11.5819 23.9392 11.6628 23.6352 11.7436C23.3311 11.865 23.0473 12.0066 22.7635 12.128C22.5405 12.2291 22.3175 12.3302 22.0946 12.4313C22.054 12.4516 22.0134 12.4516 21.9932 12.4718C21.7905 12.5729 21.608 12.6538 21.4256 12.7549C21.3648 12.7752 21.3242 12.7954 21.2837 12.8156C21.0607 12.9167 20.8377 13.0381 20.6553 13.1392C20.5134 13.1999 20.3715 13.2808 20.2499 13.3415C20.1891 13.3819 20.108 13.4224 20.0674 13.4426C19.885 13.5438 19.7025 13.6449 19.5404 13.746C19.3579 13.8471 19.1958 13.9483 19.0539 14.0494C18.912 14.1505 18.7701 14.2314 18.6484 14.3326C18.6281 14.3528 18.6079 14.3528 18.5876 14.373C18.466 14.4539 18.3241 14.555 18.2025 14.6562C18.2025 14.6562 18.1822 14.6764 18.162 14.6966C18.0606 14.7775 17.9593 14.8584 17.8579 14.9393C17.8174 14.9595 17.7768 15 17.7363 15.0202C17.6349 15.1012 17.5336 15.2023 17.4322 15.2832C17.4119 15.3236 17.3714 15.3439 17.3511 15.3641C17.2295 15.4855 17.1078 15.5866 16.9862 15.708C16.9659 15.708 16.9659 15.7282 16.9457 15.7484C16.8241 15.8495 16.7024 15.9709 16.5808 16.0922C16.5605 16.1125 16.5605 16.1326 16.5403 16.1326C16.4389 16.2338 16.3376 16.3349 16.2362 16.4563C16.1957 16.4967 16.1349 16.5372 16.0943 16.5776C15.993 16.699 15.8714 16.8203 15.7497 16.9417C15.7294 16.9821 15.6889 17.0024 15.6686 17.0428C15.5064 17.2046 15.3645 17.3664 15.2024 17.5283C15.1821 17.5485 15.1619 17.5687 15.1416 17.5889C14.8172 17.9328 14.4726 18.2766 14.1077 18.58C13.7428 18.9036 13.3577 19.207 12.9725 19.47C12.5671 19.7531 12.182 19.9958 11.7563 20.2386C11.3508 20.461 10.9251 20.6633 10.4792 20.8454C10.0535 21.0274 9.60752 21.1892 9.16155 21.3308C8.31016 21.5128 7.43849 21.8567 6.68846 21.9173C6.52629 21.9173 6.34385 21.9578 6.18168 21.978C5.99924 22.0184 5.83707 22.059 5.6749 22.0994C5.51274 22.1601 5.35056 22.2207 5.18839 22.2814C5.02622 22.3421 4.86406 22.423 4.70189 22.5039C4.55999 22.605 4.39782 22.6859 4.25592 22.7871C4.11402 22.8882 3.97212 23.0095 3.85049 23.1309C3.7086 23.232 3.5667 23.3736 3.44507 23.495C3.32344 23.6366 3.20181 23.7579 3.10046 23.8995C2.9991 24.0613 2.87748 24.2029 2.79639 24.3647C2.69503 24.5063 2.59368 24.6681 2.51259 24.8299C2.43147 25.012 2.35042 25.1738 2.28961 25.3558C2.22879 25.5176 2.16798 25.6996 2.10717 25.8817C2.06666 26.0435 2.02605 26.2053 2.00581 26.3671C2.00581 26.3874 1.98551 26.4075 1.98551 26.4278C1.945 26.6098 1.945 26.8525 1.9247 26.9739C1.90439 27.1155 1.88419 27.2368 1.88419 27.3784C1.88419 27.4594 1.88419 27.5605 1.90449 27.6414C1.92479 27.783 1.945 27.9043 1.98561 28.0257C2.02612 28.147 2.06672 28.2684 2.1275 28.3897V28.41C2.18831 28.5314 2.2694 28.6527 2.35048 28.7741C2.4316 28.8954 2.51266 29.0168 2.61401 29.1381C2.71536 29.2393 2.83699 29.3606 2.95862 29.4618C3.08025 29.5831 3.20188 29.6842 3.34377 29.7854C3.83028 30.2101 3.95191 30.3517 4.58032 30.6753C4.68167 30.736 4.78303 30.7765 4.90466 30.8371C4.92497 30.8371 4.94517 30.8574 4.96548 30.8574C4.96548 30.8978 4.96548 30.9181 4.98578 30.9585C5.00609 31.1203 5.0466 31.2821 5.08714 31.444C5.12765 31.626 5.1885 31.7878 5.24931 31.9294C5.31013 32.0507 5.35067 32.1721 5.41148 32.2935C5.43178 32.3339 5.45199 32.3744 5.4723 32.3946C5.55341 32.5564 5.63446 32.698 5.71554 32.8396C5.81691 32.9811 5.91826 33.1227 6.01961 33.2643C6.12097 33.3857 6.24259 33.5273 6.36422 33.6486C6.48585 33.77 6.60748 33.8711 6.74938 33.9925C6.74938 33.9925 6.76969 34.0127 6.78989 34.0127C6.91152 34.1139 7.03315 34.215 7.15478 34.2959C7.29667 34.397 7.43857 34.4779 7.60074 34.5588C7.74264 34.6398 7.90481 34.7207 8.06698 34.7813C8.18861 34.842 8.3305 34.8825 8.4724 34.9229C8.49271 34.9432 8.51291 34.9432 8.55352 34.9633C8.63464 34.9836 8.73595 35.0038 8.81704 35.024C8.75623 36.1162 8.73592 37.1478 8.89816 37.5118C9.08059 37.9164 9.97253 36.6826 10.8645 35.2667C10.7428 36.6623 10.6617 38.3007 10.8645 38.7861C11.0874 39.2917 12.3037 37.7141 13.3578 35.9746C27.7301 32.6576 40.8456 42.5684 42.224 56.5649C41.9605 54.3805 39.2644 53.1669 38.0279 53.4703C37.4198 54.9671 36.3859 56.8885 34.7237 58.0819C34.8656 56.747 34.8048 55.3716 34.521 54.0367C34.075 55.8975 33.2033 57.6369 32.0073 59.1337C30.0816 59.2752 28.1558 58.3448 27.1422 56.9492C27.0611 56.8885 27.0409 56.7672 26.9801 56.6863C26.9193 56.5447 26.8584 56.4031 26.8179 56.2615C26.7571 56.12 26.7165 55.9784 26.6963 55.8368C26.676 55.6952 26.676 55.5536 26.676 55.3918C26.676 55.2907 26.676 55.1895 26.676 55.0884C26.6963 54.9468 26.7368 54.8052 26.7773 54.6637C26.8178 54.5221 26.8584 54.3805 26.9192 54.2389C27.0003 54.0973 27.0611 53.9558 27.1625 53.8142C27.5071 52.8433 27.5071 52.0545 26.8787 51.5893C26.7571 51.5084 26.6354 51.4477 26.4935 51.387C26.4124 51.3668 26.3111 51.3263 26.23 51.3061C26.1692 51.2858 26.1287 51.2657 26.0678 51.2454C25.9259 51.205 25.784 51.1645 25.6421 51.1443C25.5002 51.1039 25.3583 51.0836 25.2164 51.0836C25.0745 51.0633 24.9124 51.0432 24.7705 51.0432C24.6691 51.0432 24.5678 51.0634 24.4664 51.0634C24.3042 51.0634 24.1623 51.0837 24.0204 51.1241C23.8785 51.1444 23.7366 51.1645 23.5947 51.205C23.4529 51.2455 23.3109 51.286 23.169 51.3466C23.0272 51.4073 22.9055 51.468 22.7636 51.5287C22.642 51.5893 22.5204 51.6702 22.3785 51.7309C17.6553 54.8053 20.473 62.0058 23.6961 64.0891C22.4798 64.3116 21.2433 64.5746 20.8987 64.8375C20.8784 64.8578 20.8582 64.8779 20.8582 64.8779C21.7298 65.4038 22.642 65.8488 23.5948 66.2331C24.8921 66.6578 26.2706 67.0421 26.8787 67.2039V67.2242C28.5612 67.568 30.264 67.6894 31.9871 67.5883C40.9672 66.9613 48.3257 60.145 49.6636 51.1646C49.7041 51.3466 49.7447 51.5084 49.7852 51.6905C49.846 52.0545 49.9271 52.4388 49.9676 52.8231V52.8434C50.0081 53.0254 50.0284 53.2075 50.0487 53.3693V53.4502C50.0691 53.6323 50.0893 53.8143 50.0893 53.9761C50.1096 54.1986 50.1298 54.4211 50.1298 54.6436V54.9672C50.1298 55.0683 50.1501 55.1897 50.1501 55.2908C50.1501 55.4122 50.1298 55.5335 50.1298 55.6549V55.938C50.1298 56.0796 50.1094 56.201 50.1094 56.3426C50.1094 56.4235 50.1094 56.5044 50.0891 56.6055C50.0891 56.7471 50.0689 56.8887 50.0689 57.0505C50.0485 57.1112 50.0485 57.1719 50.0485 57.2325C50.0282 57.3943 50.008 57.5359 49.9877 57.6977C49.9877 57.7584 49.9877 57.8191 49.9674 57.8798C49.9471 58.082 49.9066 58.2641 49.8863 58.4663V58.4866V58.5069C49.8458 58.6889 49.8052 58.8912 49.7647 59.0732V59.1339C49.7242 59.3159 49.6835 59.498 49.643 59.68C49.643 59.7003 49.6227 59.7407 49.6227 59.7609C49.5822 59.943 49.5416 60.125 49.4809 60.307V60.3677C49.42 60.57 49.3592 60.752 49.3187 60.934C49.2984 60.9543 49.2984 60.9745 49.2984 60.9745C49.2376 61.1767 49.1768 61.379 49.1159 61.5812C49.0348 61.7835 48.974 61.9655 48.893 62.1678C48.8119 62.3701 48.7511 62.5723 48.67 62.7544C48.5889 62.9566 48.5078 63.1387 48.4267 63.3409H48.4064C48.3253 63.523 48.2442 63.7252 48.1429 63.9073C48.1226 63.9679 48.1023 64.0084 48.082 64.0488C48.0617 64.0691 48.0618 64.0893 48.0415 64.1095C46.7239 66.7591 44.7779 69.0852 42.3453 70.9055C42.1832 71.0067 42.021 71.128 41.8588 71.2494C41.8183 71.2898 41.7575 71.3101 41.7169 71.3505C41.575 71.4516 41.4331 71.5528 41.271 71.6539L41.3318 71.7753H41.3521C41.6359 71.7348 41.9197 71.6943 42.2035 71.6539H42.2238C42.7508 71.573 43.2779 71.4719 43.8049 71.3707C43.9468 71.3504 44.109 71.3101 44.2509 71.2696C44.3522 71.2493 44.4333 71.2292 44.5347 71.2089C44.6766 71.1886 44.8185 71.1482 44.9604 71.128C45.082 71.0876 45.2036 71.0673 45.3253 71.0268C47.3524 70.5414 49.3187 69.8739 51.2039 69.0851C47.9808 73.4742 43.663 77.0138 38.6155 79.3398C40.9467 79.178 43.2779 78.7937 45.528 78.1465C53.6973 75.7395 60.5692 70.2582 64.6843 62.8757C63.8531 67.5479 61.9882 71.9977 59.2313 75.8811C61.1976 74.5867 63.0017 73.0899 64.6437 71.3909C69.1845 66.658 72.1643 60.6508 73.1779 54.1986C73.8671 57.3944 74.0698 60.6913 73.7658 63.9477C88.4016 43.5799 74.982 22.4637 69.3669 16.9015C69.3466 16.8611 69.3264 16.8408 69.3264 16.8004C69.3061 16.8206 69.3061 16.8206 69.3061 16.8408C69.3061 16.8205 69.3061 16.8205 69.2858 16.8004C69.2858 17.0431 69.2655 17.2858 69.2453 17.5285C69.1844 17.9937 69.1236 18.4387 69.0425 18.8837C68.9412 19.3287 68.8196 19.7736 68.6979 20.2186C68.556 20.6433 68.3939 21.0883 68.2114 21.5131C68.029 21.9176 67.8263 22.3424 67.6033 22.7469C67.3803 23.1312 67.1371 23.5357 66.8735 23.8998C66.61 24.2841 66.3262 24.6481 66.0424 24.992C65.7383 25.3561 65.414 25.6797 65.0897 26.0033C64.887 26.1853 64.7045 26.3471 64.5018 26.5089C64.3396 26.6505 64.1977 26.7719 64.0356 26.9135C63.6707 27.1966 63.3058 27.4596 62.9004 27.7023C62.5152 27.945 62.1098 28.1877 61.7044 28.39C61.2787 28.5923 60.853 28.7743 60.4273 28.9563C60.0016 29.1181 59.5556 29.2597 59.1096 29.3811C58.6637 29.5024 58.1975 29.6036 57.7515 29.6845C57.2853 29.7654 56.819 29.8058 56.373 29.8463C56.0487 29.8665 55.7244 29.8867 55.4 29.8867C54.9338 29.8867 54.4676 29.8463 54.0216 29.8058C53.5554 29.7653 53.0891 29.7046 52.6431 29.6035C52.1769 29.5226 51.7309 29.4012 51.285 29.2597H51.2647C51.7106 29.2192 52.1566 29.1787 52.6026 29.0978C53.0688 29.0169 53.5148 28.9158 53.9607 28.7944C54.4067 28.6731 54.8527 28.5315 55.2784 28.3697C55.7243 28.2079 56.15 28.0056 56.5555 27.8034C56.9812 27.6011 57.3663 27.3786 57.7717 27.1359C58.1569 26.873 58.542 26.61 58.9069 26.3268C59.2718 26.0437 59.6164 25.7403 59.9408 25.4167C60.2854 25.1133 60.5894 24.7694 60.8935 24.4256C61.1976 24.0615 61.4814 23.6974 61.7449 23.3334C61.7854 23.2727 61.826 23.1918 61.8665 23.1311C62.0692 22.8075 62.2719 22.4839 62.4544 22.1603C62.6774 21.7557 62.8801 21.3512 63.0625 20.9265C63.245 20.5017 63.4071 20.077 63.549 19.632C63.6909 19.2072 63.7923 18.7623 63.8936 18.3173C63.9748 17.8521 64.0558 17.4071 64.0963 16.9621C64.1369 16.4969 64.1775 16.0317 64.1775 15.5867C64.1775 15.2631 64.1571 14.9395 64.137 14.6159C64.0964 14.1507 64.0356 13.7057 63.9748 13.2607C63.8937 12.7955 63.7924 12.3505 63.6707 11.9056C63.5288 11.4808 63.3869 11.0358 63.2248 10.6111C63.0626 10.1863 62.8599 9.76159 62.6572 9.35706C62.4342 8.95254 62.2112 8.54802 61.9679 8.16372C61.7044 7.77943 61.4409 7.41535 61.1571 7.05128C60.853 6.70743 60.549 6.36359 60.2246 6.01974C60.0624 5.85794 59.88 5.6759 59.6976 5.51409C58.7854 4.80617 57.8326 4.1387 56.8799 3.53192C56.738 3.45098 56.6163 3.39033 56.4744 3.32965C55.8055 2.90491 55.177 2.6823 54.5486 2.48004Z" fill="#DF234F"/>
<path d="M94.16 53.5V51.34H94.2C94.68 51.34 95.1067 51.3133 95.48 51.26C95.8533 51.18 96.1467 51.0467 96.36 50.86C96.5733 50.6733 96.68 50.42 96.68 50.1V36.82C96.68 36.4733 96.6 36.22 96.44 36.06C96.3067 35.9 96.08 35.7667 95.76 35.66C95.44 35.5267 95.0267 35.4067 94.52 35.3L94.16 35.22V33.02H102.32V37.38L102.76 37.54V50.98C102.76 51.06 102.867 51.14 103.08 51.22C103.32 51.2733 103.613 51.3133 103.96 51.34C104.307 51.34 104.627 51.34 104.92 51.34H105V53.5H94.16ZM118.68 53.5H107.84V51.34H107.88C108.173 51.34 108.493 51.34 108.84 51.34C109.187 51.3133 109.48 51.2733 109.72 51.22C109.987 51.14 110.12 51.06 110.12 50.98V39.42C110.12 38.62 110.027 37.9667 109.84 37.46C109.68 36.9533 109.4 36.58 109 36.34C108.627 36.1 108.12 35.98 107.48 35.98C106.76 35.98 106.08 36.1533 105.44 36.5C104.8 36.8467 104.187 37.3667 103.6 38.06C103.04 38.7533 102.507 39.62 102 40.66L101.88 37.5C102.467 36.46 103.133 35.58 103.88 34.86C104.627 34.1133 105.467 33.5533 106.4 33.18C107.36 32.8067 108.4 32.62 109.52 32.62C110.853 32.62 112.013 32.8733 113 33.38C114.013 33.86 114.787 34.6067 115.32 35.62C115.88 36.6067 116.16 37.86 116.16 39.38V50.1C116.16 50.42 116.267 50.6733 116.48 50.86C116.693 51.0467 116.987 51.18 117.36 51.26C117.733 51.3133 118.16 51.34 118.64 51.34H118.68V53.5ZM127.005 43.38C127.005 44.6333 127.125 45.74 127.365 46.7C127.632 47.66 128.019 48.4733 128.525 49.14C129.032 49.8067 129.645 50.3133 130.365 50.66C131.112 50.98 131.952 51.14 132.885 51.14C133.899 51.14 134.765 50.9533 135.485 50.58C136.205 50.18 136.832 49.6867 137.365 49.1C137.899 48.4867 138.339 47.8733 138.685 47.26L140.885 48.9C140.379 49.86 139.725 50.7267 138.925 51.5C138.125 52.2467 137.165 52.8333 136.045 53.26C134.925 53.6867 133.605 53.9 132.085 53.9C129.872 53.9 127.925 53.4733 126.245 52.62C124.565 51.7667 123.245 50.5533 122.285 48.98C121.352 47.38 120.885 45.5 120.885 43.34C120.885 41.2067 121.339 39.34 122.245 37.74C123.179 36.1133 124.432 34.86 126.005 33.98C127.605 33.0733 129.392 32.62 131.365 32.62C132.965 32.62 134.365 32.86 135.565 33.34C136.792 33.82 137.819 34.54 138.645 35.5C139.472 36.46 140.099 37.6733 140.525 39.14C140.952 40.58 141.165 42.26 141.165 44.18H125.965L125.925 41.66H136.365L135.365 42.66C135.365 41.3 135.285 40.1533 135.125 39.22C134.965 38.2867 134.725 37.54 134.405 36.98C134.085 36.3933 133.672 35.9667 133.165 35.7C132.685 35.4333 132.112 35.3 131.445 35.3C130.805 35.3 130.205 35.4733 129.645 35.82C129.112 36.14 128.645 36.6333 128.245 37.3C127.845 37.9667 127.539 38.8067 127.325 39.82C127.112 40.8333 127.005 42.02 127.005 43.38ZM156.093 48.5C156.093 48.02 155.96 47.62 155.693 47.3C155.426 46.9533 155.053 46.6733 154.573 46.46C154.12 46.2467 153.6 46.06 153.013 45.9C152.426 45.7133 151.8 45.54 151.133 45.38C150.306 45.14 149.48 44.8867 148.653 44.62C147.853 44.3267 147.106 43.9533 146.413 43.5C145.746 43.02 145.2 42.42 144.773 41.7C144.373 40.9533 144.173 40.02 144.173 38.9C144.173 37.5667 144.52 36.4333 145.213 35.5C145.933 34.54 146.92 33.82 148.173 33.34C149.453 32.8333 150.946 32.58 152.653 32.58C154.04 32.58 155.24 32.6867 156.253 32.9C157.266 33.1133 158.093 33.3667 158.733 33.66C159.4 33.9533 159.866 34.2067 160.133 34.42V38.58H155.693V34.9C156.04 34.9 156.306 34.9533 156.493 35.06C156.706 35.1667 156.853 35.3267 156.933 35.54C157.013 35.7267 157.04 35.9267 157.013 36.14C156.986 36.3533 156.933 36.5667 156.853 36.78C156.56 36.4333 156.2 36.14 155.773 35.9C155.373 35.6333 154.92 35.4467 154.413 35.34C153.906 35.2067 153.333 35.14 152.693 35.14C151.546 35.14 150.68 35.38 150.093 35.86C149.533 36.3133 149.253 36.9133 149.253 37.66C149.253 38.1933 149.386 38.6333 149.653 38.98C149.946 39.3 150.333 39.58 150.813 39.82C151.293 40.0333 151.84 40.2333 152.453 40.42C153.093 40.6067 153.76 40.78 154.453 40.94C155.28 41.1533 156.106 41.4067 156.933 41.7C157.76 41.9933 158.52 42.3667 159.213 42.82C159.906 43.2733 160.453 43.86 160.853 44.58C161.28 45.2733 161.493 46.1533 161.493 47.22C161.493 48.58 161.133 49.7667 160.413 50.78C159.693 51.7667 158.64 52.54 157.253 53.1C155.866 53.6333 154.173 53.9 152.173 53.9C150.786 53.9 149.533 53.78 148.413 53.54C147.293 53.3267 146.32 53.06 145.493 52.74C144.693 52.3933 144.026 52.06 143.493 51.74V47.22H148.053V52.02C147.626 51.8067 147.293 51.58 147.053 51.34C146.84 51.0733 146.693 50.82 146.613 50.58C146.533 50.3133 146.52 50.0867 146.573 49.9C146.653 49.6867 146.773 49.5133 146.933 49.38C147.333 49.8333 147.786 50.2067 148.293 50.5C148.826 50.7667 149.413 50.98 150.053 51.14C150.72 51.2733 151.426 51.34 152.173 51.34C153 51.34 153.693 51.2333 154.253 51.02C154.84 50.8067 155.293 50.4867 155.613 50.06C155.933 49.6333 156.093 49.1133 156.093 48.5ZM162.693 35.54V33.22H162.813C163.48 33.22 164.053 33.1667 164.533 33.06C165.013 32.9533 165.386 32.7667 165.653 32.5C165.92 32.2067 166.053 31.8067 166.053 31.3L169.413 33.02H177.133V35.54H162.693ZM171.733 46.66C171.733 47.7533 171.853 48.62 172.093 49.26C172.36 49.8733 172.72 50.3267 173.173 50.62C173.653 50.8867 174.226 51.02 174.893 51.02C175.426 51.02 175.92 50.9667 176.373 50.86C176.826 50.7267 177.186 50.62 177.453 50.54V53.22C177.24 53.3267 176.933 53.4333 176.533 53.54C176.133 53.6467 175.68 53.7267 175.173 53.78C174.666 53.86 174.106 53.9 173.493 53.9C172.053 53.9 170.733 53.6867 169.533 53.26C168.36 52.8067 167.426 52.0467 166.733 50.98C166.04 49.9133 165.693 48.4733 165.693 46.66V33.66L166.013 33.38L166.093 27.46H171.733V46.66Z" fill="#DF234F"/>
</svg>
