<svg width="197" height="40" viewBox="0 0 197 40" fill="none" xmlns="http://www.w3.org/2000/svg">
<g clip-path="url(#clip0_3_191)">
<path d="M130.959 0.0166016H165.273V6.35007H151.661V39.6696H144.855V6.35007H130.959V0.0166016Z" fill="#101010"/>
<path d="M74.526 0.0166016V6.35007H47.0211V16.5387H69.1405V22.8721H47.0211V33.3361H74.526V39.6696H40.215V6.35007H40.2122V0.0166016H74.526Z" fill="#101010"/>
<path d="M91.66 0.032959H82.753L114.656 39.6859H123.589L107.635 19.8731L123.563 0.0632117L114.656 0.0769767L103.176 14.3347L91.66 0.032959Z" fill="#101010"/>
<path d="M100.8 28.3575L96.3395 22.8115L82.7275 39.7164H91.66L100.8 28.3575Z" fill="#101010"/>
<path fill-rule="evenodd" clip-rule="evenodd" d="M40.4535 39.6695L8.50755 0H0V39.653H6.80605V8.4758L31.9034 39.6695H40.4535Z" fill="#101010"/>
<path d="M166.803 39.4272C166.305 39.4272 165.881 39.2546 165.526 38.9092C165.171 38.5639 164.995 38.1458 165 37.6505C164.995 37.1688 165.171 36.7552 165.526 36.4099C165.881 36.0645 166.305 35.8918 166.803 35.8918C167.283 35.8918 167.702 36.0645 168.057 36.4099C168.417 36.7552 168.597 37.1688 168.602 37.6505C168.597 37.9776 168.514 38.2775 168.348 38.5456C168.177 38.8183 167.961 39.0319 167.688 39.1864C167.421 39.3455 167.126 39.4272 166.803 39.4272Z" fill="#101010"/>
<path d="M178.42 22.7227H181.436V34.3423C181.431 35.4102 181.2 36.3236 180.749 37.0916C180.292 37.8596 179.66 38.4457 178.849 38.8593C178.042 39.2682 177.096 39.4773 176.022 39.4773C175.039 39.4773 174.159 39.3001 173.375 38.9547C172.591 38.6094 171.968 38.0913 171.512 37.4097C171.05 36.728 170.824 35.8783 170.824 34.8604H173.845C173.85 35.3057 173.951 35.6919 174.145 36.0146C174.338 36.3372 174.606 36.5826 174.947 36.7553C175.293 36.928 175.69 37.0143 176.137 37.0143C176.621 37.0143 177.036 36.9143 177.373 36.7098C177.709 36.5099 177.968 36.21 178.148 35.8101C178.323 35.4148 178.415 34.924 178.42 34.3423V22.7227Z" fill="#101010"/>
<path d="M193.846 27.2669C193.772 26.5625 193.449 26.0127 192.887 25.6219C192.319 25.2266 191.586 25.0312 190.687 25.0312C190.055 25.0312 189.511 25.1266 189.059 25.3129C188.607 25.5038 188.257 25.7582 188.017 26.0809C187.777 26.4035 187.657 26.7716 187.648 27.1852C187.648 27.5305 187.731 27.8304 187.892 28.0804C188.054 28.3348 188.27 28.5484 188.552 28.7211C188.828 28.8983 189.137 29.0437 189.474 29.1618C189.815 29.28 190.157 29.38 190.498 29.4618L192.07 29.848C192.702 29.9934 193.316 30.1889 193.901 30.4388C194.487 30.6842 195.017 30.9978 195.483 31.3749C195.949 31.7521 196.318 32.2065 196.59 32.7382C196.862 33.2699 197 33.8924 197 34.6104C197 35.5783 196.751 36.4281 196.248 37.1642C195.746 37.8958 195.022 38.4684 194.072 38.882C193.126 39.291 191.983 39.5 190.636 39.5C189.336 39.5 188.201 39.3001 187.247 38.9002C186.288 38.5049 185.54 37.9231 185.001 37.1597C184.461 36.3963 184.171 35.4647 184.129 34.3695H187.118C187.159 34.9421 187.344 35.4193 187.657 35.8055C187.975 36.1872 188.39 36.469 188.898 36.6599C189.41 36.8462 189.981 36.9416 190.613 36.9416C191.273 36.9416 191.854 36.8416 192.356 36.6462C192.854 36.4508 193.246 36.1782 193.528 35.8237C193.814 35.4738 193.957 35.0603 193.961 34.5877C193.957 34.156 193.827 33.797 193.578 33.5152C193.325 33.2335 192.974 32.9972 192.527 32.8064C192.075 32.6155 191.549 32.4428 190.95 32.2929L189.041 31.8111C187.662 31.4612 186.569 30.9296 185.771 30.2162C184.969 29.5027 184.572 28.5575 184.572 27.3715C184.572 26.399 184.839 25.5447 185.379 24.813C185.914 24.0814 186.647 23.5134 187.574 23.1089C188.506 22.7 189.557 22.5 190.728 22.5C191.918 22.5 192.96 22.7 193.86 23.1089C194.759 23.5134 195.465 24.0769 195.976 24.7948C196.488 25.5128 196.756 26.3353 196.77 27.2669H193.846Z" fill="#101010"/>
</g>
<defs>
<clipPath id="clip0_3_191">
<rect width="197" height="40" fill="white"/>
</clipPath>
</defs>
</svg>
