<svg width="130" height="80" viewBox="0 0 130 80" fill="none" xmlns="http://www.w3.org/2000/svg">
<g clip-path="url(#clip0_3_166)">
<path d="M64.2542 80.0004C63.8251 80.0004 63.399 79.8873 63.0228 79.6696L59.1035 77.3381C58.5181 77.0092 58.8037 76.8928 58.9968 76.8258C59.7773 76.5512 59.9357 76.4892 60.7688 76.0138C60.8564 75.9636 60.971 75.9813 61.0607 76.0344L64.0717 77.8298C64.1804 77.8888 64.3347 77.8888 64.4355 77.8298L76.1756 71.0206C76.2843 70.9586 76.3549 70.8316 76.3549 70.7017V57.0893C76.3549 56.9534 76.2843 56.8324 76.1733 56.7645L64.4378 49.9612C64.3291 49.8962 64.1851 49.8962 64.0764 49.9612L52.3433 56.7645C52.2295 56.8294 52.1572 56.9564 52.1572 57.0863V70.6987C52.1572 70.8287 52.2278 70.9527 52.3394 71.0147L55.5544 72.8808C57.3 73.7578 58.3667 72.7243 58.3667 71.685V58.2497C58.3667 58.0578 58.5166 57.9101 58.7076 57.9101H60.1946C60.3798 57.9101 60.5326 58.0578 60.5326 58.2497V71.6909C60.5326 74.0295 59.263 75.373 57.0561 75.373C56.3772 75.373 55.8424 75.373 54.3495 74.6348L51.2698 72.8513C50.5086 72.4084 50.0384 71.5816 50.0384 70.6987V57.0863C50.0384 56.2005 50.5086 55.3737 51.2698 54.9367L63.0217 48.1245C63.7652 47.7023 64.7526 47.7023 65.4902 48.1245L77.2274 54.9396C77.9856 55.3796 78.4587 56.2034 78.4587 57.0893V70.7017C78.4587 71.5846 77.9856 72.4084 77.2274 72.8513L65.4902 79.6634C65.114 79.8819 64.6879 79.9942 64.253 79.9942" fill="#83CD29"/>
<path d="M67.8805 70.6203C62.7437 70.6203 61.6666 68.251 61.6666 66.2638C61.6666 66.0748 61.8183 65.9242 62.0066 65.9242H63.523C63.6905 65.9242 63.8316 66.0467 63.858 66.213C64.0872 67.7656 64.769 68.5486 67.8752 68.5486C70.3496 68.5486 71.4017 67.987 71.4017 66.6686C71.4017 65.9097 71.1019 65.3457 67.2581 64.9678C64.0432 64.6489 62.0566 63.9372 62.0566 61.3535C62.0566 58.9736 64.0549 57.5562 67.4021 57.5562C71.1607 57.5562 73.0238 58.8673 73.2589 61.6843C73.2678 61.7817 73.2325 61.8762 73.1678 61.9471C73.1032 62.015 73.0121 62.0563 72.9181 62.0563H71.3929C71.2342 62.0563 71.0961 61.9441 71.0637 61.7906C70.6964 60.1577 69.8089 59.635 67.3962 59.635C64.6955 59.635 64.3811 60.5799 64.3811 61.2886C64.3811 62.1478 64.7514 62.3988 68.3954 62.8831C72.0041 63.3644 73.7174 64.0435 73.7174 66.5918C73.7174 69.1608 71.5839 70.6342 67.8635 70.6342M82.1632 56.1979H82.557C82.8803 56.1979 82.942 55.9706 82.942 55.8377C82.942 55.4893 82.704 55.4893 82.5717 55.4893H82.1662L82.1632 56.1979ZM81.6842 55.0818H82.557C82.8568 55.0818 83.4445 55.0818 83.4445 55.755C83.4445 56.2245 83.1448 56.322 82.9655 56.381C83.3152 56.4046 83.3387 56.635 83.3857 56.9598C83.4092 57.1635 83.4475 57.5149 83.518 57.633H82.9802C82.9655 57.5149 82.8832 56.8653 82.8832 56.8298C82.848 56.6852 82.798 56.6143 82.6187 56.6143H82.175V57.636H81.6842V55.0818ZM80.6351 56.3515C80.6351 57.4086 81.4844 58.2649 82.5276 58.2649C83.5797 58.2649 84.429 57.3909 84.429 56.3515C84.429 55.2914 83.5679 54.4499 82.5247 54.4499C81.4961 54.4499 80.6322 55.2796 80.6322 56.3485M84.7934 56.3574C84.7934 57.6094 83.7736 58.6311 82.5306 58.6311C81.2963 58.6311 80.2678 57.6212 80.2678 56.3574C80.2678 55.07 81.3198 54.0837 82.5306 54.0837C83.7501 54.0837 84.7904 55.0729 84.7904 56.3574" fill="#83CD29"/>
<path fill-rule="evenodd" clip-rule="evenodd" d="M27.8991 26.7376C27.8991 26.1943 27.6141 25.6952 27.1474 25.425L14.7002 18.2291C14.4901 18.105 14.2547 18.0401 14.0161 18.0312H13.8874C13.6487 18.0401 13.4133 18.105 13.1997 18.2291L0.753088 25.425C0.28936 25.6967 0.000190735 26.1957 0.000190735 26.739L0.0275207 46.1212C0.0275207 46.3899 0.16564 46.6409 0.400737 46.7738C0.629956 46.9155 0.91795 46.9155 1.14717 46.7738L8.54684 42.5159C9.01409 42.2365 9.29915 41.7428 9.29915 41.2048V32.1501C9.29915 31.6097 9.5842 31.1107 10.05 30.842L13.2003 29.0189C13.4342 28.8831 13.691 28.8157 13.9526 28.8157C14.21 28.8157 14.4727 28.8825 14.7002 29.0186L17.849 30.8411C18.3151 31.1098 18.6013 31.6088 18.6013 32.1492V41.2033C18.6013 41.7408 18.8902 42.2368 19.3551 42.5144L26.7501 46.7694C26.9822 46.9082 27.2711 46.9082 27.5024 46.7694C27.7304 46.6365 27.875 46.3855 27.875 46.1168L27.8991 26.7376ZM86.6345 36.8291C86.6345 36.964 86.5631 37.0889 86.4464 37.1556L82.1712 39.6319C82.0551 39.6989 81.9117 39.6989 81.7959 39.6319L77.5201 37.1556C77.4026 37.0886 77.332 36.9637 77.332 36.8291V31.8695C77.332 31.7343 77.4026 31.6097 77.5172 31.5418L81.7901 29.0614C81.9076 28.9935 82.0516 28.9935 82.1692 29.0614L86.445 31.5418C86.5625 31.6097 86.633 31.7343 86.633 31.8695L86.6345 36.8291ZM87.7894 0.0956069C87.5561 -0.034907 87.2722 -0.0313636 87.0418 0.103579C86.8126 0.239408 86.671 0.487444 86.671 0.756149V19.9494C86.671 20.1383 86.571 20.3126 86.4082 20.4071C86.2466 20.5015 86.0453 20.5015 85.8822 20.4071L82.7642 18.6026C82.2999 18.3327 81.7281 18.3327 81.262 18.6026L68.8107 25.8231C68.3455 26.0918 68.0583 26.5908 68.0583 27.1282V41.5733C68.0583 42.1137 68.3455 42.6098 68.8107 42.8814L81.262 50.1069C81.7269 50.3756 82.2993 50.3756 82.7657 50.1069L95.217 42.8785C95.6813 42.6068 95.9693 42.1107 95.9693 41.5704V5.56981C95.9693 5.02177 95.6725 4.51772 95.1964 4.24991L87.7894 0.0956069ZM129.253 31.739C129.715 31.4691 130 30.9707 130 30.4333V26.9325C130 26.3939 129.715 25.8969 129.251 25.6258L116.879 18.4092C116.412 18.1375 115.839 18.1375 115.372 18.4092L102.923 25.6288C102.456 25.9004 102.171 26.3965 102.171 26.9369V41.3761C102.171 41.9194 102.462 42.4214 102.929 42.6901L115.298 49.7739C115.754 50.0367 116.312 50.0396 116.774 49.7827L124.256 45.6045C124.491 45.4716 124.641 45.2206 124.641 44.949C124.641 44.6773 124.497 44.4234 124.261 44.2905L111.737 37.0679C111.502 36.9351 111.358 36.6841 111.358 36.4154V31.8858C111.358 31.6153 111.499 31.3661 111.734 31.2314L115.63 28.9725C115.863 28.8367 116.148 28.8367 116.38 28.9725L120.28 31.2314C120.512 31.3643 120.656 31.6153 120.656 31.884V35.4451C120.656 35.7138 120.8 35.9648 121.032 36.1006C121.264 36.2335 121.552 36.2335 121.784 36.0977L129.253 31.739Z" fill="#83CD29"/>
<path fill-rule="evenodd" clip-rule="evenodd" d="M115.943 31.0634C116.032 31.0111 116.142 31.0111 116.231 31.0634L118.621 32.4482C118.71 32.5002 118.765 32.5959 118.765 32.6992V35.4719C118.765 35.5753 118.71 35.6709 118.621 35.7229L116.231 37.1078C116.142 37.16 116.032 37.16 115.943 37.1078L113.556 35.7229C113.465 35.6709 113.409 35.5753 113.409 35.4719V32.6992C113.409 32.5959 113.462 32.5002 113.553 32.4482L115.943 31.0634Z" fill="#83CD29"/>
<mask id="mask0_3_166" style="mask-type:luminance" maskUnits="userSpaceOnUse" x="34" y="18" width="28" height="33">
<path d="M47.2323 18.4813L34.8515 25.6616C34.3878 25.9303 34.1033 26.4264 34.1033 26.9626V41.3333C34.1033 41.8699 34.3878 42.3656 34.8515 42.6344L47.2331 49.8203C47.696 50.0881 48.2667 50.0881 48.7289 49.8203L61.1086 42.6344C61.5699 42.3656 61.855 41.8696 61.855 41.3333V26.9626C61.855 26.4264 61.5699 25.9303 61.1056 25.6616L48.7278 18.4813C48.4956 18.3475 48.237 18.2805 47.9784 18.2805C47.7198 18.2805 47.4612 18.3475 47.229 18.4813" fill="white"/>
</mask>
<g mask="url(#mask0_3_166)">
<path d="M74.3663 24.4424L39.4794 7.26001L21.5914 43.9262L56.4774 61.1094L74.3663 24.4424Z" fill="url(#paint0_linear_3_166)"/>
</g>
<mask id="mask1_3_166" style="mask-type:luminance" maskUnits="userSpaceOnUse" x="34" y="18" width="28" height="33">
<path d="M34.4101 42.2457C34.5285 42.4002 34.6766 42.5339 34.8509 42.6343L45.4714 48.7983L47.2405 49.82C47.505 49.9735 47.8065 50.0385 48.1027 50.0163C48.2015 50.0084 48.3002 49.9897 48.3966 49.9623L61.4544 25.9383C61.3545 25.829 61.2376 25.7375 61.1065 25.6607L52.9998 20.9569L48.7146 18.4795C48.5929 18.4086 48.4609 18.3584 48.3266 18.323L34.4101 42.2457Z" fill="white"/>
</mask>
<g mask="url(#mask1_3_166)">
<path d="M19.3263 29.5244L43.96 63.0249L76.5385 38.8396L51.9033 5.34009L19.3263 29.5244Z" fill="url(#paint1_linear_3_166)"/>
</g>
<mask id="mask2_3_166" style="mask-type:luminance" maskUnits="userSpaceOnUse" x="34" y="18" width="28" height="33">
<path d="M47.8306 18.2888C47.6228 18.3095 47.4198 18.3744 47.2326 18.4813L34.887 25.641L48.1994 50.0046C48.3845 49.978 48.5667 49.916 48.7313 49.8203L61.1121 42.6344C61.4941 42.4117 61.7557 42.035 61.835 41.608L48.264 18.3133C48.1641 18.2935 48.0642 18.2832 47.9614 18.2832C47.9202 18.2832 47.8791 18.2853 47.8379 18.2891" fill="white"/>
</mask>
<g mask="url(#mask2_3_166)">
<path d="M34.8866 18.2832V50.0052H61.8296V18.2832H34.8866Z" fill="url(#paint2_linear_3_166)"/>
</g>
</g>
<defs>
<linearGradient id="paint0_linear_3_166" x1="56.9123" y1="15.8242" x2="38.8872" y2="52.4197" gradientUnits="userSpaceOnUse">
<stop stop-color="#83CD29"/>
<stop offset="1" stop-color="#83CD29" stop-opacity="0.5"/>
</linearGradient>
<linearGradient id="paint1_linear_3_166" x1="31.7908" y1="46.4667" x2="64.4805" y2="22.4281" gradientUnits="userSpaceOnUse">
<stop stop-color="#83CD29"/>
<stop offset="1" stop-color="#83CD29" stop-opacity="0.5"/>
</linearGradient>
<linearGradient id="paint2_linear_3_166" x1="34.8957" y1="34.1451" x2="61.8347" y2="34.1451" gradientUnits="userSpaceOnUse">
<stop stop-color="#83CD29" stop-opacity="0.5"/>
<stop offset="1" stop-color="#83CD29"/>
</linearGradient>
<clipPath id="clip0_3_166">
<rect width="130" height="80" fill="white"/>
</clipPath>
</defs>
</svg>
