<svg width="213" height="80" viewBox="0 0 213 80" fill="none" xmlns="http://www.w3.org/2000/svg">
<g clip-path="url(#clip0_3_186)">
<path d="M45 48.0144C49.4303 48.0144 53.0217 44.4263 53.0217 40.0001C53.0217 35.574 49.4303 31.9858 45 31.9858C40.5697 31.9858 36.9783 35.574 36.9783 40.0001C36.9783 44.4263 40.5697 48.0144 45 48.0144Z" fill="#61DAFB"/>
<path d="M45 56.4193C68.7723 56.4193 88.0435 49.0681 88.0435 39.9998C88.0435 30.9316 68.7723 23.5803 45 23.5803C21.2278 23.5803 1.95654 30.9316 1.95654 39.9998C1.95654 49.0681 21.2278 56.4193 45 56.4193Z" stroke="#61DAFB" stroke-width="3"/>
<path d="M30.7671 48.2097C42.6532 68.7779 58.6611 81.7761 66.5218 77.242C74.3824 72.7079 71.1191 52.3584 59.233 31.7902C47.3469 11.2219 31.3389 -1.77628 23.4783 2.75784C15.6177 7.29196 18.881 27.6414 30.7671 48.2097Z" stroke="#61DAFB" stroke-width="3"/>
<path d="M30.7671 31.7901C18.881 52.3583 15.6176 72.7078 23.4783 77.2419C31.3389 81.776 47.3468 68.7778 59.233 48.2096C71.1191 27.6414 74.3824 7.2919 66.5218 2.75778C58.6611 -1.77634 42.6532 11.2219 30.7671 31.7901Z" stroke="#61DAFB" stroke-width="3"/>
</g>
<path d="M108.864 55V25.9091H118.253C120.317 25.9091 122.041 26.2831 123.423 27.0312C124.815 27.7699 125.862 28.7973 126.562 30.1136C127.273 31.4205 127.628 32.9214 127.628 34.6165C127.628 36.3116 127.273 37.8078 126.562 39.1051C125.862 40.4025 124.82 41.4157 123.438 42.1449C122.055 42.8741 120.341 43.2386 118.295 43.2386H110.298V40.8097H118.224C119.74 40.8097 120.999 40.5587 122.003 40.0568C123.016 39.5549 123.769 38.84 124.261 37.9119C124.763 36.9839 125.014 35.8854 125.014 34.6165C125.014 33.3475 124.763 32.2396 124.261 31.2926C123.759 30.3362 123.002 29.5975 121.989 29.0767C120.985 28.5559 119.716 28.2955 118.182 28.2955H111.52V55H108.864ZM121.69 41.875L128.849 55H125.781L118.693 41.875H121.69ZM142.159 55.4545C140.123 55.4545 138.362 54.9811 136.875 54.0341C135.388 53.0777 134.238 51.7566 133.423 50.071C132.618 48.3759 132.216 46.4252 132.216 44.2188C132.216 42.0218 132.618 40.071 133.423 38.3665C134.238 36.6525 135.36 35.3125 136.79 34.3466C138.229 33.3712 139.891 32.8835 141.776 32.8835C142.959 32.8835 144.1 33.1013 145.199 33.5369C146.297 33.9631 147.282 34.6212 148.153 35.5114C149.034 36.392 149.73 37.5047 150.241 38.8494C150.753 40.1847 151.009 41.7661 151.009 43.5938V44.8438H133.963V42.6136H148.423C148.423 41.2121 148.139 39.9527 147.571 38.8352C147.012 37.7083 146.231 36.8182 145.227 36.1648C144.233 35.5114 143.082 35.1847 141.776 35.1847C140.393 35.1847 139.176 35.554 138.125 36.2926C137.074 37.0312 136.25 38.0066 135.653 39.2188C135.066 40.4309 134.768 41.7566 134.759 43.196V44.5312C134.759 46.2642 135.057 47.7794 135.653 49.0767C136.259 50.3646 137.116 51.3636 138.224 52.0739C139.332 52.7841 140.644 53.1392 142.159 53.1392C143.191 53.1392 144.096 52.9782 144.872 52.6562C145.658 52.3343 146.316 51.9034 146.847 51.3636C147.386 50.8144 147.794 50.2131 148.068 49.5597L150.469 50.3409C150.137 51.2595 149.593 52.107 148.835 52.8835C148.087 53.66 147.15 54.285 146.023 54.7585C144.905 55.2225 143.617 55.4545 142.159 55.4545ZM162.674 55.4972C161.358 55.4972 160.155 55.2415 159.066 54.7301C157.977 54.2093 157.111 53.4612 156.467 52.4858C155.823 51.5009 155.501 50.3078 155.501 48.9062C155.501 47.8267 155.704 46.9176 156.112 46.179C156.519 45.4403 157.096 44.8343 157.844 44.3608C158.593 43.8873 159.478 43.5133 160.501 43.2386C161.523 42.964 162.65 42.7509 163.881 42.5994C165.103 42.4479 166.135 42.3153 166.978 42.2017C167.83 42.0881 168.479 41.9081 168.924 41.6619C169.369 41.4157 169.592 41.018 169.592 40.4688V39.9574C169.592 38.4706 169.147 37.3011 168.256 36.4489C167.376 35.5871 166.107 35.1562 164.45 35.1562C162.878 35.1562 161.594 35.5019 160.6 36.1932C159.615 36.8845 158.924 37.6989 158.526 38.6364L156.126 37.7699C156.618 36.5767 157.3 35.625 158.171 34.9148C159.042 34.1951 160.018 33.679 161.097 33.3665C162.177 33.0445 163.271 32.8835 164.379 32.8835C165.212 32.8835 166.078 32.9924 166.978 33.2102C167.887 33.428 168.73 33.8068 169.506 34.3466C170.283 34.8769 170.913 35.6203 171.396 36.5767C171.879 37.5237 172.12 38.7263 172.12 40.1847V55H169.592V51.5483H169.435C169.132 52.1922 168.683 52.8172 168.086 53.4233C167.489 54.0294 166.741 54.5265 165.842 54.9148C164.942 55.303 163.886 55.4972 162.674 55.4972ZM163.015 53.1818C164.36 53.1818 165.524 52.8835 166.509 52.2869C167.494 51.6903 168.252 50.8996 168.782 49.9148C169.322 48.9205 169.592 47.8267 169.592 46.6335V43.4801C169.402 43.66 169.085 43.821 168.64 43.9631C168.204 44.1051 167.698 44.233 167.12 44.3466C166.552 44.4508 165.984 44.5407 165.415 44.6165C164.847 44.6922 164.336 44.7585 163.881 44.8153C162.65 44.9669 161.599 45.2036 160.728 45.5256C159.857 45.8475 159.189 46.2926 158.725 46.8608C158.261 47.4195 158.029 48.1392 158.029 49.0199C158.029 50.3456 158.503 51.3731 159.45 52.1023C160.397 52.822 161.585 53.1818 163.015 53.1818ZM187.369 55.4545C185.418 55.4545 183.718 54.9669 182.269 53.9915C180.83 53.0161 179.712 51.6809 178.917 49.9858C178.121 48.2907 177.724 46.3589 177.724 44.1903C177.724 42.0028 178.126 40.0568 178.931 38.3523C179.746 36.6477 180.872 35.3125 182.312 34.3466C183.751 33.3712 185.423 32.8835 187.326 32.8835C188.784 32.8835 190.105 33.1676 191.289 33.7358C192.473 34.2945 193.448 35.0852 194.215 36.108C194.992 37.1212 195.479 38.3049 195.678 39.6591H193.121C192.856 38.428 192.217 37.3769 191.204 36.5057C190.2 35.625 188.922 35.1847 187.369 35.1847C185.977 35.1847 184.746 35.5634 183.675 36.321C182.605 37.0691 181.767 38.1155 181.161 39.4602C180.565 40.7955 180.266 42.3437 180.266 44.1051C180.266 45.8759 180.56 47.4432 181.147 48.8068C181.734 50.161 182.558 51.2216 183.619 51.9886C184.689 52.7557 185.939 53.1392 187.369 53.1392C188.335 53.1392 189.215 52.9593 190.011 52.5994C190.816 52.2301 191.488 51.7093 192.028 51.0369C192.577 50.3646 192.946 49.5644 193.136 48.6364H195.692C195.503 49.9527 195.034 51.1269 194.286 52.1591C193.548 53.1818 192.586 53.9867 191.403 54.5739C190.228 55.161 188.884 55.4545 187.369 55.4545ZM209.705 33.1818V35.3835H199.293V33.1818H209.705ZM202.546 27.9545H205.089V49.304C205.089 50.2131 205.245 50.928 205.558 51.4489C205.87 51.9602 206.277 52.3248 206.779 52.5426C207.281 52.7509 207.816 52.8551 208.384 52.8551C208.716 52.8551 209 52.8362 209.237 52.7983C209.473 52.7509 209.682 52.7036 209.862 52.6562L210.401 54.9432C210.155 55.0379 209.852 55.1231 209.492 55.1989C209.132 55.2841 208.687 55.3267 208.157 55.3267C207.229 55.3267 206.334 55.1231 205.472 54.7159C204.62 54.3087 203.919 53.7027 203.37 52.8977C202.821 52.0928 202.546 51.0938 202.546 49.9006V27.9545Z" fill="#101010"/>
<defs>
<clipPath id="clip0_3_186">
<rect width="90" height="80" fill="white"/>
</clipPath>
</defs>
</svg>
