<svg width="40" height="40" viewBox="0 0 40 40" fill="none" xmlns="http://www.w3.org/2000/svg">
<g clip-path="url(#clip0_77_1877)">
<path fill-rule="evenodd" clip-rule="evenodd" d="M0 0H40V40H0V0ZM30.5778 33.5328C28.7239 33.5328 27.6756 32.5658 26.8699 31.2503L23.8153 33.0249C24.9188 35.2052 27.174 36.8687 30.6648 36.8687C34.235 36.8687 36.8934 35.0147 36.8934 31.6306C36.8934 28.4915 35.0902 27.0953 31.8965 25.7258L30.9569 25.3233C29.3442 24.6249 28.6458 24.1684 28.6458 23.0407C28.6458 22.1284 29.3435 21.4299 30.4445 21.4299C31.5238 21.4299 32.2191 21.8852 32.8635 23.0407L35.7905 21.1614C34.5524 18.9836 32.8343 18.1519 30.4445 18.1519C27.0877 18.1519 24.9397 20.2979 24.9397 23.1169C24.9397 26.1772 26.7416 27.6249 29.454 28.7804L30.3937 29.1836C32.108 29.9334 33.1302 30.3899 33.1302 31.6788C33.1302 32.7544 32.1353 33.5328 30.5778 33.5328ZM16.0108 33.5093C14.7194 33.5093 14.1823 32.6236 13.5918 31.576L10.5321 33.4284C11.4185 35.3042 13.1613 36.8617 16.1708 36.8617C19.5016 36.8617 21.7835 35.0903 21.7835 31.1982V18.3665H18.0248V31.1474C18.0248 33.0261 17.2458 33.5093 16.0108 33.5093Z" fill="#F0DB4F"/>
</g>
<defs>
<clipPath id="clip0_77_1877">
<rect width="40" height="40" rx="4" fill="white"/>
</clipPath>
</defs>
</svg>
