<svg width="40" height="40" viewBox="0 0 40 40" fill="none" xmlns="http://www.w3.org/2000/svg">
<g clip-path="url(#clip0_77_1881)">
<path fill-rule="evenodd" clip-rule="evenodd" d="M0 0H40V40H0V0ZM23.1374 33.1019C24.3045 35.3099 26.6955 37 30.396 37C34.1819 37 37 35.1191 37 31.6844C37 28.495 35.0928 27.0775 31.7054 25.6872L30.7092 25.2783C29.0012 24.5696 28.2611 24.1062 28.2611 22.9613C28.2611 22.0344 29.0012 21.3257 30.1683 21.3257C31.3069 21.3257 32.047 21.7891 32.7302 22.9613L35.8329 21.0531C34.5235 18.8451 32.7017 18 30.1683 18C26.6101 18 24.3329 20.1808 24.3329 23.043C24.3329 26.1506 26.2401 27.6227 29.1151 28.7948L30.1114 29.2037C31.9332 29.967 33.0148 30.4304 33.0148 31.7389C33.0148 32.8293 31.9616 33.6198 30.3106 33.6198C28.3465 33.6198 27.2364 32.6385 26.3824 31.3027L23.1374 33.1019ZM13.5223 21.571V36.7547H17.5074V21.571H23.0297V18.2181H8V21.571H13.5223Z" fill="#007ACC"/>
</g>
<defs>
<clipPath id="clip0_77_1881">
<rect width="40" height="40" rx="4" fill="white"/>
</clipPath>
</defs>
</svg>
