<svg width="40" height="40" viewBox="0 0 40 40" fill="none" xmlns="http://www.w3.org/2000/svg">
<path d="M20.2542 36.0004C19.8251 36.0004 19.399 35.8873 19.0228 35.6696L15.1035 33.3381C14.5181 33.0092 14.8037 32.8928 14.9968 32.8258C15.7773 32.5512 15.9357 32.4892 16.7689 32.0138C16.8564 31.9636 16.971 31.9813 17.0607 32.0344L20.0717 33.8298C20.1804 33.8888 20.3347 33.8888 20.4355 33.8298L32.1756 27.0206C32.2844 26.9586 32.3549 26.8316 32.3549 26.7017V13.0893C32.3549 12.9534 32.2844 12.8324 32.1733 12.7645L20.4378 5.96119C20.3291 5.89623 20.1851 5.89623 20.0764 5.96119L8.34328 12.7645C8.22955 12.8294 8.15726 12.9564 8.15726 13.0863V26.6987C8.15726 26.8287 8.22779 26.9527 8.33946 27.0147L11.5544 28.8808C13.3 29.7578 14.3668 28.7243 14.3668 27.685V14.2497C14.3668 14.0578 14.5166 13.9101 14.7076 13.9101H16.1946C16.3798 13.9101 16.5326 14.0578 16.5326 14.2497V27.6909C16.5326 30.0295 15.2631 31.373 13.0561 31.373C12.3773 31.373 11.8424 31.373 10.3495 30.6348L7.26977 28.8513C6.50865 28.4084 6.03845 27.5816 6.03845 26.6987V13.0863C6.03845 12.2005 6.50865 11.3737 7.26977 10.9367L19.0217 4.12455C19.7652 3.7023 20.7526 3.7023 21.4902 4.12455L33.2274 10.9396C33.9856 11.3796 34.4587 12.2034 34.4587 13.0893V26.7017C34.4587 27.5846 33.9856 28.4084 33.2274 28.8513L21.4902 35.6634C21.114 35.8819 20.6879 35.9942 20.253 35.9942" fill="#83CD29"/>
<path d="M23.8805 26.6204C18.7437 26.6204 17.6666 24.251 17.6666 22.2638C17.6666 22.0748 17.8183 21.9242 18.0066 21.9242H19.523C19.6905 21.9242 19.8316 22.0468 19.858 22.213C20.0872 23.7656 20.769 24.5487 23.8752 24.5487C26.3496 24.5487 27.4017 23.9871 27.4017 22.6686C27.4017 21.9098 27.1019 21.3458 23.2581 20.9678C20.0432 20.6489 18.0566 19.9373 18.0566 17.3536C18.0566 14.9736 20.0549 13.5563 23.4021 13.5563C27.1607 13.5563 29.0239 14.8673 29.259 17.6843C29.2678 17.7817 29.2325 17.8762 29.1679 17.9471C29.1032 18.015 29.0121 18.0563 28.9181 18.0563H27.3929C27.2342 18.0563 27.0961 17.9441 27.0637 17.7906C26.6964 16.1577 25.8089 15.635 23.3962 15.635C20.6956 15.635 20.3811 16.5799 20.3811 17.2886C20.3811 18.1479 20.7514 18.3989 24.3954 18.8831C28.0041 19.3644 29.7174 20.0436 29.7174 22.5918C29.7174 25.1608 27.5839 26.6342 23.8635 26.6342" fill="#83CD29"/>
</svg>
