<svg width="40" height="40" viewBox="0 0 40 40" fill="none" xmlns="http://www.w3.org/2000/svg">
<path fill-rule="evenodd" clip-rule="evenodd" d="M22.842 4C22.6106 4 22.3957 4.04978 22.1974 4.11615C22.6188 4.39824 22.8502 4.77158 22.9659 5.19471C22.9742 5.25278 22.9907 5.29427 22.999 5.35234C23.0073 5.40212 23.0155 5.4519 23.0155 5.50168C23.0486 6.23178 22.8254 6.32304 22.6684 6.75447C22.4288 7.31034 22.4949 7.90769 22.7841 8.3889C22.8089 8.44697 22.842 8.51334 22.8833 8.57142C22.5693 6.47238 24.313 6.15711 24.6353 5.50168C24.6601 4.92922 24.189 4.54757 23.8171 4.28208C23.4618 4.06637 23.1395 4 22.842 4ZM25.4699 4.47291C25.4369 4.66373 25.4617 4.61395 25.4534 4.71351C25.4451 4.77988 25.4451 4.86285 25.4369 4.92922C25.4204 4.99559 25.4038 5.06196 25.3791 5.12834C25.3625 5.19471 25.3377 5.26108 25.3129 5.32745C25.2799 5.39383 25.2551 5.4519 25.222 5.51828C25.1972 5.55148 25.1807 5.58465 25.1559 5.61784C25.1394 5.64272 25.1229 5.66761 25.1063 5.6925C25.065 5.75058 25.0237 5.80866 24.9824 5.85844C24.9328 5.90822 24.8915 5.96629 24.8336 6.00778V6.01608C24.784 6.05757 24.7345 6.10735 24.6766 6.14883C24.5031 6.28157 24.3047 6.38113 24.1229 6.50558C24.0651 6.54706 24.0072 6.58025 23.9576 6.63003C23.8998 6.67151 23.8502 6.71299 23.8006 6.76277C23.7428 6.81255 23.7015 6.86233 23.6519 6.92041C23.6105 6.97019 23.561 7.02827 23.5279 7.08634C23.4866 7.14442 23.4453 7.20249 23.4122 7.26057C23.3791 7.32694 23.3544 7.38502 23.3213 7.45139C23.2965 7.51776 23.2717 7.57584 23.2552 7.64221C23.2304 7.71688 23.2139 7.78325 23.1973 7.84963C23.1891 7.88283 23.1891 7.9243 23.1808 7.95748C23.1725 7.99068 23.1725 8.02385 23.1643 8.05704C23.1643 8.12341 23.156 8.19808 23.156 8.26446C23.156 8.31424 23.156 8.36402 23.1643 8.4138C23.1643 8.48017 23.1726 8.54654 23.1891 8.62121C23.1974 8.68758 23.2139 8.75395 23.2304 8.82033C23.2552 8.8867 23.2718 8.95307 23.2965 9.01944C23.3131 9.06093 23.3379 9.10241 23.3544 9.1356L21.4537 8.3972C21.1314 8.30594 20.8173 8.22298 20.495 8.1483C20.3215 8.10682 20.1479 8.06534 19.9744 8.02386C19.4785 7.9243 18.9744 7.84963 18.4703 7.79985C18.4538 7.79985 18.4455 7.79154 18.429 7.79154C17.9332 7.74176 17.4456 7.71687 16.9498 7.71687C16.5861 7.71687 16.2225 7.73345 15.8672 7.75835C15.3631 7.79155 14.8589 7.85792 14.3548 7.94088C14.2309 7.95746 14.1069 7.98237 13.983 8.00726C13.7268 8.05703 13.4789 8.11511 13.2392 8.17319C13.1152 8.20639 12.9913 8.23956 12.8673 8.27274C12.7434 8.32252 12.6277 8.3806 12.512 8.43038C12.4211 8.47186 12.3301 8.51334 12.2392 8.55483C12.2227 8.56314 12.2062 8.56314 12.1979 8.57141C12.1153 8.61289 12.0409 8.64607 11.9665 8.68756C11.9417 8.69587 11.9252 8.70414 11.9087 8.71245C11.8178 8.75393 11.7269 8.80371 11.6525 8.84519C11.5946 8.87008 11.5368 8.90327 11.4872 8.92816C11.4624 8.94474 11.4294 8.96136 11.4128 8.96965C11.3385 9.01113 11.2641 9.05261 11.198 9.09409C11.1236 9.13558 11.0575 9.17706 10.9996 9.21854C10.9418 9.26003 10.8839 9.29321 10.8344 9.33469C10.8261 9.343 10.8178 9.343 10.8096 9.35127C10.76 9.38447 10.7021 9.42594 10.6525 9.46743C10.6525 9.46743 10.6443 9.47573 10.636 9.48401C10.5947 9.51721 10.5534 9.55038 10.5121 9.58356C10.4956 9.59187 10.479 9.60845 10.4625 9.61676C10.4212 9.64996 10.3798 9.69143 10.3385 9.72462C10.3302 9.7412 10.3137 9.74951 10.3055 9.75782C10.2559 9.8076 10.2063 9.84908 10.1567 9.89886C10.1484 9.89886 10.1484 9.90717 10.1402 9.91544C10.0906 9.95693 10.041 10.0067 9.99143 10.0565C9.98316 10.0648 9.98316 10.0731 9.97492 10.0731C9.9336 10.1145 9.89228 10.156 9.85096 10.2058C9.83444 10.2224 9.80964 10.239 9.79311 10.2556C9.75179 10.3054 9.70221 10.3551 9.65262 10.4049C9.64434 10.4215 9.62783 10.4298 9.61955 10.4464C9.55344 10.5128 9.49559 10.5792 9.42948 10.6455C9.4212 10.6538 9.41297 10.6621 9.40469 10.6704C9.27246 10.8115 9.13197 10.9525 8.98322 11.077C8.83447 11.2097 8.67745 11.3341 8.52043 11.442C8.35515 11.5582 8.19814 11.6577 8.02459 11.7573C7.85931 11.8485 7.68576 11.9315 7.50396 12.0062C7.33041 12.0808 7.1486 12.1472 6.96679 12.2053C6.6197 12.28 6.26435 12.421 5.95858 12.4459C5.89247 12.4459 5.81809 12.4625 5.75198 12.4708C5.6776 12.4874 5.61149 12.504 5.54538 12.5206C5.47927 12.5454 5.41315 12.5703 5.34704 12.5952C5.28093 12.6201 5.21482 12.6533 5.1487 12.6865C5.09085 12.728 5.02474 12.7612 4.96689 12.8026C4.90905 12.8441 4.8512 12.8939 4.80161 12.9437C4.74377 12.9852 4.68592 13.0432 4.63633 13.093C4.58675 13.1511 4.53716 13.2009 4.49584 13.259C4.45452 13.3253 4.40494 13.3834 4.37188 13.4498C4.33056 13.5079 4.28924 13.5742 4.25618 13.6406C4.22311 13.7153 4.19007 13.7816 4.16528 13.8563C4.14049 13.9227 4.1157 13.9973 4.0909 14.072C4.07439 14.1384 4.05783 14.2048 4.04958 14.2711C4.04958 14.2795 4.04131 14.2877 4.04131 14.296C4.02479 14.3707 4.02479 14.4703 4.01652 14.52C4.00824 14.5781 4 14.6279 4 14.686C4 14.7192 4 14.7606 4.00828 14.7938C4.01655 14.8519 4.02479 14.9017 4.04135 14.9515C4.05786 15.0012 4.07442 15.051 4.09919 15.1008V15.1091C4.12398 15.1589 4.15704 15.2087 4.1901 15.2584C4.22317 15.3082 4.25621 15.358 4.29753 15.4078C4.33885 15.4493 4.38843 15.499 4.43802 15.5405C4.4876 15.5903 4.53719 15.6318 4.59503 15.6733C4.79337 15.8475 4.84296 15.9056 5.09914 16.0383C5.14046 16.0632 5.18179 16.0798 5.23137 16.1047C5.23965 16.1047 5.24789 16.113 5.25616 16.113C5.25616 16.1296 5.25616 16.1379 5.26444 16.1545C5.27272 16.2209 5.28923 16.2872 5.30576 16.3536C5.32227 16.4283 5.34708 16.4947 5.37188 16.5527C5.39667 16.6025 5.41319 16.6523 5.43799 16.7021C5.44626 16.7186 5.4545 16.7353 5.46278 16.7435C5.49585 16.8099 5.52889 16.868 5.56194 16.9261C5.60327 16.9841 5.64459 17.0422 5.68591 17.1003C5.72723 17.1501 5.77681 17.2082 5.82639 17.2579C5.87598 17.3077 5.92556 17.3492 5.98341 17.399C5.98341 17.399 5.99169 17.4073 5.99993 17.4073C6.04951 17.4488 6.0991 17.4903 6.14868 17.5234C6.20653 17.5649 6.26438 17.5981 6.33049 17.6313C6.38834 17.6645 6.45445 17.6977 6.52056 17.7226C6.57015 17.7475 6.628 17.764 6.68585 17.7806C6.69412 17.789 6.70236 17.789 6.71891 17.7972C6.75198 17.8055 6.79329 17.8138 6.82635 17.8221C6.80155 18.2701 6.79328 18.6933 6.85942 18.8426C6.93379 19.0085 7.29741 18.5024 7.66103 17.9217C7.61144 18.4941 7.57838 19.1662 7.66103 19.3653C7.75193 19.5727 8.24777 18.9256 8.6775 18.2121C14.5367 16.8514 19.8836 20.9167 20.4455 26.658C20.3381 25.7619 19.239 25.2641 18.7349 25.3886C18.4869 26.0025 18.0655 26.7907 17.3878 27.2802C17.4457 26.7326 17.4209 26.1685 17.3052 25.6209C17.1234 26.3842 16.768 27.0977 16.2804 27.7116C15.4953 27.7697 14.7103 27.3881 14.2971 26.8156C14.264 26.7907 14.2557 26.7409 14.2309 26.7078C14.2062 26.6497 14.1814 26.5916 14.1648 26.5335C14.14 26.4755 14.1235 26.4174 14.1152 26.3593C14.107 26.3012 14.107 26.2431 14.107 26.1768C14.107 26.1353 14.107 26.0938 14.107 26.0523C14.1152 25.9942 14.1318 25.9362 14.1483 25.8781C14.1648 25.82 14.1814 25.7619 14.2061 25.7039C14.2392 25.6458 14.264 25.5877 14.3053 25.5296C14.4458 25.1314 14.4458 24.8078 14.1896 24.617C14.14 24.5838 14.0904 24.5589 14.0326 24.534C13.9995 24.5257 13.9582 24.5092 13.9252 24.5009C13.9004 24.4925 13.8838 24.4843 13.859 24.476C13.8012 24.4594 13.7433 24.4428 13.6855 24.4345C13.6277 24.4179 13.5698 24.4096 13.512 24.4096C13.4541 24.4013 13.388 24.393 13.3301 24.393C13.2888 24.393 13.2475 24.4013 13.2062 24.4013C13.1401 24.4013 13.0822 24.4096 13.0244 24.4262C12.9665 24.4345 12.9087 24.4428 12.8508 24.4594C12.793 24.476 12.7351 24.4926 12.6773 24.5175C12.6194 24.5424 12.5699 24.5673 12.512 24.5921C12.4624 24.617 12.4128 24.6502 12.355 24.6751C10.4295 25.9362 11.5782 28.8898 12.8922 29.7443C12.3963 29.8356 11.8922 29.9435 11.7517 30.0513C11.7434 30.0596 11.7352 30.0679 11.7352 30.0679C12.0906 30.2836 12.4624 30.4661 12.8508 30.6238C13.3797 30.798 13.9417 30.9556 14.1896 31.022V31.0303C14.8755 31.1713 15.5697 31.2211 16.2722 31.1796C19.9331 30.9224 22.933 28.1265 23.4784 24.4428C23.4949 24.5175 23.5115 24.5838 23.528 24.6585C23.5528 24.8079 23.5858 24.9655 23.6024 25.1231V25.1314C23.6189 25.2061 23.6272 25.2808 23.6354 25.3472V25.3804C23.6437 25.455 23.652 25.5297 23.652 25.5961C23.6602 25.6873 23.6685 25.7786 23.6685 25.8699V26.0026C23.6685 26.0441 23.6768 26.0939 23.6768 26.1353C23.6768 26.1851 23.6685 26.2349 23.6685 26.2847V26.4008C23.6685 26.4589 23.6602 26.5087 23.6602 26.5668C23.6602 26.6 23.6602 26.6331 23.6519 26.6746C23.6519 26.7327 23.6436 26.7908 23.6436 26.8571C23.6354 26.882 23.6354 26.9069 23.6354 26.9318C23.6271 26.9982 23.6188 27.0563 23.6106 27.1226C23.6106 27.1475 23.6106 27.1724 23.6023 27.1973C23.594 27.2803 23.5775 27.3549 23.5692 27.4379V27.4462V27.4545C23.5527 27.5292 23.5361 27.6122 23.5196 27.6868V27.7117C23.5031 27.7864 23.4866 27.8611 23.47 27.9357C23.47 27.9441 23.4618 27.9606 23.4618 27.9689C23.4453 28.0436 23.4287 28.1183 23.4039 28.1929V28.2178C23.3791 28.3008 23.3543 28.3755 23.3378 28.4501C23.3295 28.4584 23.3295 28.4667 23.3295 28.4667C23.3047 28.5497 23.28 28.6327 23.2552 28.7156C23.2221 28.7986 23.1973 28.8733 23.1643 28.9562C23.1312 29.0392 23.1064 29.1222 23.0734 29.1968C23.0403 29.2798 23.0072 29.3545 22.9742 29.4374H22.9659C22.9328 29.5121 22.8998 29.5951 22.8585 29.6697C22.8502 29.6946 22.8419 29.7112 22.8337 29.7278C22.8254 29.7361 22.8254 29.7444 22.8172 29.7527C22.28 30.8395 21.4866 31.7936 20.495 32.5403C20.4288 32.5818 20.3627 32.6316 20.2966 32.6814C20.2801 32.698 20.2553 32.7063 20.2388 32.7229C20.1809 32.7643 20.1231 32.8058 20.057 32.8473L20.0818 32.8971H20.09C20.2057 32.8805 20.3214 32.8639 20.4371 32.8473H20.4454C20.6603 32.8141 20.8751 32.7726 21.09 32.7312C21.1478 32.7228 21.214 32.7063 21.2718 32.6897C21.3131 32.6814 21.3462 32.6731 21.3875 32.6648C21.4453 32.6565 21.5032 32.6399 21.561 32.6316C21.6106 32.615 21.6602 32.6067 21.7098 32.5901C22.5362 32.391 23.3378 32.1172 24.1064 31.7936C22.7924 33.594 21.0321 35.0459 18.9744 36C19.9248 35.9336 20.8751 35.776 21.7924 35.5105C25.1229 34.5232 27.9244 32.2748 29.602 29.2466C29.2631 31.1631 28.5028 32.9883 27.3789 34.5813C28.1805 34.0503 28.916 33.4364 29.5854 32.7394C31.4366 30.798 32.6514 28.334 33.0646 25.6873C33.3456 26.9982 33.4282 28.3506 33.3043 29.6863C39.2709 21.3316 33.8001 12.67 31.511 10.3884C31.5027 10.3719 31.4944 10.3636 31.4944 10.347C31.4862 10.3553 31.4862 10.3553 31.4862 10.3635C31.4862 10.3552 31.4862 10.3552 31.4779 10.347C31.4779 10.4465 31.4696 10.5461 31.4614 10.6456C31.4366 10.8365 31.4118 11.019 31.3787 11.2015C31.3374 11.384 31.2878 11.5666 31.2382 11.7491C31.1804 11.9233 31.1143 12.1058 31.0399 12.2801C30.9655 12.446 30.8829 12.6202 30.792 12.7862C30.7011 12.9438 30.6019 13.1097 30.4945 13.2591C30.387 13.4167 30.2713 13.566 30.1556 13.7071C30.0317 13.8564 29.8995 13.9892 29.7672 14.1219C29.6846 14.1966 29.6102 14.2629 29.5276 14.3293C29.4615 14.3874 29.4036 14.4372 29.3375 14.4952C29.1888 14.6114 29.04 14.7193 28.8747 14.8188C28.7177 14.9184 28.5524 15.0179 28.3871 15.1009C28.2136 15.1839 28.0401 15.2585 27.8665 15.3332C27.693 15.3996 27.5112 15.4577 27.3293 15.5074C27.1475 15.5572 26.9575 15.5987 26.7757 15.6319C26.5856 15.6651 26.3955 15.6817 26.2137 15.6983C26.0815 15.7066 25.9492 15.7148 25.817 15.7148C25.6269 15.7148 25.4369 15.6983 25.2551 15.6816C25.065 15.6651 24.8749 15.6402 24.6931 15.5987C24.503 15.5655 24.3212 15.5157 24.1394 15.4576H24.1311C24.313 15.4411 24.4948 15.4244 24.6766 15.3913C24.8666 15.3581 25.0485 15.3166 25.2303 15.2668C25.4121 15.217 25.5939 15.1589 25.7674 15.0926C25.9492 15.0262 26.1228 14.9432 26.2881 14.8603C26.4616 14.7773 26.6186 14.686 26.7839 14.5865C26.9409 14.4786 27.0979 14.3708 27.2467 14.2546C27.3954 14.1385 27.5359 14.014 27.6682 13.8813C27.8086 13.7568 27.9326 13.6158 28.0566 13.4747C28.1805 13.3254 28.2962 13.1761 28.4037 13.0267C28.4202 13.0018 28.4367 12.9687 28.4532 12.9438C28.5359 12.811 28.6185 12.6783 28.6929 12.5455C28.7838 12.3796 28.8664 12.2137 28.9408 12.0394C29.0152 11.8652 29.0813 11.691 29.1392 11.5085C29.197 11.3342 29.2383 11.1517 29.2796 10.9692C29.3127 10.7784 29.3458 10.5958 29.3623 10.4133C29.3788 10.2225 29.3954 10.0317 29.3954 9.84914C29.3954 9.71639 29.3871 9.58365 29.3788 9.4509C29.3623 9.26008 29.3375 9.07756 29.3127 8.89503C29.2797 8.70421 29.2384 8.52169 29.1888 8.33916C29.1309 8.16493 29.0731 7.98241 29.007 7.80818C28.9408 7.63395 28.8582 7.45972 28.7756 7.29379C28.6847 7.12786 28.5938 6.96193 28.4946 6.80429C28.3872 6.64666 28.2797 6.49732 28.164 6.34798C28.0401 6.20694 27.9161 6.0659 27.7839 5.92485C27.7178 5.85848 27.6434 5.78381 27.569 5.71744C27.1971 5.42706 26.8087 5.15327 26.4203 4.90437C26.3625 4.87118 26.3129 4.8463 26.255 4.82141C25.9823 4.64718 25.7261 4.55587 25.4699 4.47291Z" fill="#DF234F"/>
</svg>
