<svg width="40" height="40" viewBox="0 0 40 40" fill="none" xmlns="http://www.w3.org/2000/svg">
<g clip-path="url(#clip0_77_1902)">
<mask id="mask0_77_1902" style="mask-type:luminance" maskUnits="userSpaceOnUse" x="0" y="0" width="40" height="40">
<path d="M40 0H0V40H40V0Z" fill="white"/>
</mask>
<g mask="url(#mask0_77_1902)">
<path d="M18.9521 4.00861C18.8833 4.01487 18.6643 4.03676 18.4672 4.0524C13.9222 4.46211 9.66491 6.91414 6.96852 10.6829C5.46705 12.7784 4.50675 15.1554 4.14389 17.6731C4.01564 18.552 4 18.8116 4 20.0031C4 21.1948 4.01564 21.4544 4.14389 22.3332C5.01349 28.3414 9.28955 33.3893 15.089 35.2595C16.1275 35.5942 17.2223 35.8225 18.4672 35.9601C18.9521 36.0133 21.0479 36.0133 21.5328 35.9601C23.6817 35.7224 25.5023 35.1908 27.2977 34.2744C27.5731 34.1336 27.6261 34.0961 27.5887 34.0648C27.5636 34.046 26.3907 32.4729 24.9829 30.5713L22.4243 27.1153L19.218 22.3708C17.4537 19.7624 16.0023 17.6293 15.9898 17.6293C15.9773 17.6261 15.9648 19.7342 15.9585 22.3081C15.9492 26.815 15.946 26.9965 15.8897 27.1027C15.8084 27.2561 15.7458 27.3186 15.6145 27.3874C15.5144 27.4375 15.4268 27.4468 14.9545 27.4468H14.4133L14.2694 27.3562C14.1756 27.2967 14.1067 27.2185 14.0598 27.1278L13.9941 26.987L14.0004 20.7162L14.0098 14.4423L14.1067 14.3203C14.1568 14.2546 14.2631 14.1702 14.3382 14.1295C14.4665 14.067 14.5165 14.0607 15.0577 14.0607C15.6958 14.0607 15.8021 14.0857 15.9679 14.2671C16.0149 14.3172 17.7509 16.9318 19.828 20.0814C21.9049 23.2308 24.7452 27.5312 26.1404 29.6424L28.6741 33.4799L28.8024 33.3955C29.9379 32.6574 31.1391 31.6065 32.0899 30.5118C34.1137 28.188 35.4181 25.3545 35.8561 22.3332C35.9844 21.4544 36 21.1948 36 20.0031C36 18.8116 35.9844 18.552 35.8561 17.6731C34.9865 11.665 30.7104 6.61703 24.9111 4.74672C23.8881 4.4152 22.7996 4.18688 21.5797 4.04927C21.2793 4.01799 19.2117 3.98359 18.9521 4.00861ZM25.5023 13.6854C25.6524 13.7605 25.7744 13.9043 25.8181 14.0544C25.8432 14.1358 25.8495 15.8747 25.8432 19.7935L25.8339 25.417L24.8423 23.8969L23.8475 22.377V18.2892C23.8475 15.6464 23.86 14.1608 23.8788 14.0889C23.9288 13.9137 24.0383 13.7761 24.1884 13.6948C24.3167 13.6291 24.3636 13.6228 24.8548 13.6228C25.3177 13.6228 25.3991 13.6291 25.5023 13.6854Z" fill="white"/>
</g>
</g>
<defs>
<clipPath id="clip0_77_1902">
<rect width="40" height="40" fill="white"/>
</clipPath>
</defs>
</svg>
