<svg width="40" height="40" viewBox="0 0 40 40" fill="none" xmlns="http://www.w3.org/2000/svg">
<path fill-rule="evenodd" clip-rule="evenodd" d="M20 36C28.8366 36 36 28.8366 36 20C36 11.1634 28.8366 4 20 4C11.1634 4 4 11.1634 4 20C4 28.8366 11.1634 36 20 36ZM11.7311 25.2448C12.6026 25.7483 13.635 26 14.8285 26C15.6833 26 16.4382 25.8767 17.0933 25.63C17.7538 25.3782 18.3034 25.0459 18.7419 24.6331C19.186 24.2203 19.5051 23.7697 19.6994 23.2813L18.2923 22.866C18.1313 23.2133 17.8926 23.533 17.5762 23.825C17.2653 24.112 16.8795 24.3411 16.4188 24.5123C15.9636 24.6834 15.4335 24.769 14.8285 24.769C13.9403 24.769 13.1715 24.5802 12.5221 24.2026C11.8726 23.825 11.3702 23.2939 11.015 22.6092C10.6865 21.9612 10.5122 21.2111 10.4923 20.3587H20.0158V19.6941C20.0158 18.7225 19.8659 17.8817 19.5662 17.1718C19.2664 16.4569 18.8585 15.8653 18.3422 15.3971C17.8315 14.9239 17.2542 14.5739 16.6103 14.3474C15.9664 14.1158 15.2975 14 14.6037 14C13.499 14 12.5248 14.2593 11.6811 14.7778C10.8429 15.2914 10.1851 16.0038 9.70774 16.915C9.23591 17.8213 9 18.8584 9 20.0264C9 21.1995 9.23591 22.2366 9.70774 23.1378C10.1851 24.034 10.8596 24.7363 11.7311 25.2448ZM10.5021 19.1731C10.5468 18.5264 10.7178 17.9247 11.015 17.3682C11.3647 16.7237 11.8476 16.2052 12.4638 15.8125C13.0799 15.4198 13.7932 15.2234 14.6037 15.2234C15.3697 15.2234 16.0441 15.3971 16.627 15.7445C17.2154 16.0919 17.6733 16.5651 18.0008 17.1643C18.3339 17.7583 18.5004 18.4279 18.5004 19.1731H10.5021ZM25.9792 19.1051L22.6819 14.1586H20.9667L25.03 19.9585L20.9667 25.7583H22.6819L25.9792 20.9704L29.2764 25.7583H31L26.8868 19.9585L31 14.1586H29.2764L25.9792 19.1051Z" fill="white"/>
</svg>
