<svg width="187" height="40" viewBox="0 0 187 40" fill="none" xmlns="http://www.w3.org/2000/svg">
<path d="M0.511364 5.6875V1.90909H23.0256V5.6875H13.9489V31H9.57386V5.6875H0.511364ZM25.8445 39.1818C25.21 39.1818 24.6323 39.1297 24.1115 39.0256C23.5907 38.9309 23.2024 38.8267 22.9467 38.7131L23.9695 35.233C24.746 35.4413 25.4373 35.5313 26.0433 35.5028C26.6494 35.4744 27.1844 35.2472 27.6484 34.821C28.1219 34.3949 28.5386 33.6989 28.8984 32.733L29.424 31.2841L21.4411 9.18182H25.9865L31.5121 26.1136H31.7393L37.2649 9.18182H41.8246L32.8331 33.9119C32.4164 35.0483 31.8861 36.0095 31.2422 36.7955C30.5982 37.5909 29.8312 38.1875 28.9411 38.5852C28.0509 38.983 27.0187 39.1818 25.8445 39.1818ZM43.8161 39.1818V9.18182H47.9638V12.7188H48.3189C48.5651 12.2642 48.9202 11.7386 49.3842 11.142C49.8482 10.5455 50.4922 10.0246 51.3161 9.57955C52.1399 9.125 53.2289 8.89773 54.5831 8.89773C56.3445 8.89773 57.9164 9.3428 59.299 10.233C60.6816 11.1231 61.7659 12.4062 62.5518 14.0824C63.3473 15.7585 63.745 17.7756 63.745 20.1335C63.745 22.4915 63.352 24.5133 62.5661 26.1989C61.7801 27.875 60.7005 29.1676 59.3274 30.0767C57.9543 30.9763 56.3871 31.4261 54.6257 31.4261C53.3 31.4261 52.2157 31.2036 51.3729 30.7585C50.5395 30.3134 49.8861 29.7926 49.4126 29.196C48.9392 28.5994 48.5746 28.0691 48.3189 27.6051H48.0632V39.1818H43.8161ZM47.978 20.0909C47.978 21.625 48.2005 22.9697 48.6456 24.125C49.0907 25.2803 49.7346 26.1847 50.5774 26.8381C51.4202 27.482 52.4524 27.804 53.674 27.804C54.9429 27.804 56.0036 27.4678 56.8558 26.7955C57.7081 26.1136 58.352 25.1903 58.7876 24.0256C59.2327 22.8608 59.4553 21.5492 59.4553 20.0909C59.4553 18.6515 59.2375 17.3589 58.8018 16.2131C58.3757 15.0672 57.7318 14.1629 56.87 13.5C56.0178 12.8371 54.9524 12.5057 53.674 12.5057C52.4429 12.5057 51.4013 12.8229 50.549 13.4574C49.7062 14.0919 49.067 14.9773 48.6314 16.1136C48.1958 17.25 47.978 18.5758 47.978 20.0909ZM75.907 31.4403C73.7573 31.4403 71.906 30.9811 70.353 30.0625C68.8094 29.1345 67.6162 27.8324 66.7734 26.1562C65.9401 24.4706 65.5234 22.4962 65.5234 20.233C65.5234 17.9981 65.9401 16.0284 66.7734 14.3239C67.6162 12.6193 68.7905 11.2888 70.2962 10.3324C71.8113 9.37595 73.5821 8.89773 75.6087 8.89773C76.8397 8.89773 78.0329 9.10133 79.1882 9.50852C80.3435 9.91572 81.3804 10.5549 82.299 11.4261C83.2176 12.2973 83.942 13.429 84.4723 14.821C85.0026 16.2036 85.2678 17.8845 85.2678 19.8636V21.3693H67.924V18.1875H81.1058C81.1058 17.0701 80.8786 16.0805 80.424 15.2188C79.9695 14.3475 79.3303 13.661 78.5064 13.1591C77.692 12.6572 76.7356 12.4062 75.6371 12.4062C74.4439 12.4062 73.4022 12.6998 72.5121 13.2869C71.6314 13.8646 70.9496 14.6222 70.4666 15.5597C69.9931 16.4877 69.7564 17.4962 69.7564 18.5852V21.071C69.7564 22.5294 70.0121 23.7699 70.5234 24.7926C71.0443 25.8153 71.7687 26.5966 72.6967 27.1364C73.6248 27.6667 74.709 27.9318 75.9496 27.9318C76.7545 27.9318 77.4884 27.8182 78.1513 27.5909C78.8142 27.3542 79.3871 27.0038 79.87 26.5398C80.353 26.0758 80.7223 25.5028 80.978 24.821L84.9979 25.5455C84.6759 26.7292 84.0982 27.7661 83.2649 28.6562C82.4411 29.5369 81.4041 30.2235 80.1541 30.7159C78.9136 31.1989 77.4979 31.4403 75.907 31.4403ZM104.188 9.55114C104.036 8.20644 103.411 7.16477 102.312 6.42614C101.214 5.67803 99.8314 5.30398 98.1648 5.30398C96.9716 5.30398 95.9394 5.49337 95.0682 5.87216C94.197 6.24148 93.5199 6.75284 93.0369 7.40625C92.5634 8.05019 92.3267 8.78409 92.3267 9.60795C92.3267 10.2992 92.4877 10.8958 92.8097 11.3977C93.1411 11.8996 93.572 12.321 94.1023 12.6619C94.642 12.9934 95.2197 13.2727 95.8352 13.5C96.4508 13.7178 97.0426 13.8977 97.6108 14.0398L100.452 14.7784C101.38 15.0057 102.331 15.3134 103.307 15.7017C104.282 16.09 105.187 16.6013 106.02 17.2358C106.853 17.8703 107.526 18.6562 108.037 19.5938C108.558 20.5312 108.818 21.6534 108.818 22.9602C108.818 24.608 108.392 26.071 107.54 27.3494C106.697 28.6278 105.471 29.6364 103.861 30.375C102.26 31.1136 100.324 31.483 98.0511 31.483C95.8731 31.483 93.9886 31.1373 92.3977 30.446C90.8068 29.7547 89.5616 28.7746 88.6619 27.5057C87.7623 26.2273 87.2652 24.7121 87.1705 22.9602H91.5739C91.6591 24.0114 92 24.8873 92.5966 25.5881C93.2027 26.2794 93.9744 26.7955 94.9119 27.1364C95.8589 27.4678 96.8958 27.6335 98.0227 27.6335C99.2633 27.6335 100.366 27.4394 101.332 27.0511C102.308 26.6534 103.075 26.1042 103.634 25.4034C104.192 24.6932 104.472 23.8646 104.472 22.9176C104.472 22.0559 104.225 21.3504 103.733 20.8011C103.25 20.2519 102.592 19.7973 101.759 19.4375C100.935 19.0777 100.002 18.7604 98.9602 18.4858L95.5227 17.5483C93.1932 16.9138 91.3466 15.9811 89.983 14.75C88.6288 13.5189 87.9517 11.8902 87.9517 9.86364C87.9517 8.1875 88.4063 6.72443 89.3153 5.47443C90.2244 4.22443 91.4555 3.25379 93.0085 2.5625C94.5616 1.86174 96.3134 1.51136 98.2642 1.51136C100.234 1.51136 101.972 1.85701 103.477 2.5483C104.992 3.23958 106.186 4.19129 107.057 5.40341C107.928 6.60606 108.383 7.98864 108.42 9.55114H104.188ZM120.913 31.4403C118.801 31.4403 116.983 30.9621 115.458 30.0057C113.943 29.0398 112.778 27.7093 111.964 26.0142C111.149 24.3191 110.742 22.3778 110.742 20.1903C110.742 17.9744 111.159 16.0189 111.992 14.3239C112.826 12.6193 114 11.2888 115.515 10.3324C117.03 9.37595 118.815 8.89773 120.87 8.89773C122.527 8.89773 124.004 9.20549 125.302 9.82102C126.599 10.4271 127.646 11.2794 128.441 12.3778C129.246 13.4763 129.724 14.7595 129.876 16.2273H125.742C125.515 15.2045 124.994 14.3239 124.18 13.5852C123.375 12.8466 122.295 12.4773 120.941 12.4773C119.757 12.4773 118.72 12.7898 117.83 13.4148C116.95 14.0303 116.263 14.911 115.771 16.0568C115.278 17.1932 115.032 18.5379 115.032 20.0909C115.032 21.6818 115.273 23.0549 115.756 24.2102C116.239 25.3655 116.921 26.2604 117.802 26.8949C118.692 27.5294 119.738 27.8466 120.941 27.8466C121.746 27.8466 122.475 27.6998 123.129 27.4062C123.791 27.1032 124.345 26.6723 124.79 26.1136C125.245 25.5549 125.562 24.8826 125.742 24.0966H129.876C129.724 25.5076 129.265 26.767 128.498 27.875C127.731 28.983 126.703 29.8542 125.415 30.4886C124.137 31.1231 122.636 31.4403 120.913 31.4403ZM132.418 31V9.18182H136.523V12.6477H136.75C137.148 11.4735 137.848 10.5502 138.852 9.87784C139.866 9.19602 141.011 8.85511 142.29 8.85511C142.555 8.85511 142.867 8.86458 143.227 8.88352C143.597 8.90246 143.885 8.92614 144.094 8.95455V13.017C143.923 12.9697 143.62 12.9176 143.185 12.8608C142.749 12.7945 142.313 12.7614 141.878 12.7614C140.874 12.7614 139.979 12.9744 139.193 13.4006C138.417 13.8172 137.801 14.3996 137.347 15.1477C136.892 15.8864 136.665 16.7292 136.665 17.6761V31H132.418ZM145.769 31V9.18182H150.016V31H145.769ZM147.914 5.81534C147.175 5.81534 146.541 5.56913 146.011 5.0767C145.49 4.57481 145.229 3.97822 145.229 3.28693C145.229 2.58617 145.49 1.98958 146.011 1.49716C146.541 0.995264 147.175 0.744318 147.914 0.744318C148.653 0.744318 149.282 0.995264 149.803 1.49716C150.334 1.98958 150.599 2.58617 150.599 3.28693C150.599 3.97822 150.334 4.57481 149.803 5.0767C149.282 5.56913 148.653 5.81534 147.914 5.81534ZM153.73 39.1818V9.18182H157.878V12.7188H158.233C158.479 12.2642 158.834 11.7386 159.298 11.142C159.762 10.5455 160.406 10.0246 161.23 9.57955C162.054 9.125 163.143 8.89773 164.497 8.89773C166.259 8.89773 167.83 9.3428 169.213 10.233C170.596 11.1231 171.68 12.4062 172.466 14.0824C173.261 15.7585 173.659 17.7756 173.659 20.1335C173.659 22.4915 173.266 24.5133 172.48 26.1989C171.694 27.875 170.615 29.1676 169.241 30.0767C167.868 30.9763 166.301 31.4261 164.54 31.4261C163.214 31.4261 162.13 31.2036 161.287 30.7585C160.454 30.3134 159.8 29.7926 159.327 29.196C158.853 28.5994 158.489 28.0691 158.233 27.6051H157.977V39.1818H153.73ZM157.892 20.0909C157.892 21.625 158.115 22.9697 158.56 24.125C159.005 25.2803 159.649 26.1847 160.491 26.8381C161.334 27.482 162.366 27.804 163.588 27.804C164.857 27.804 165.918 27.4678 166.77 26.7955C167.622 26.1136 168.266 25.1903 168.702 24.0256C169.147 22.8608 169.369 21.5492 169.369 20.0909C169.369 18.6515 169.152 17.3589 168.716 16.2131C168.29 15.0672 167.646 14.1629 166.784 13.5C165.932 12.8371 164.866 12.5057 163.588 12.5057C162.357 12.5057 161.315 12.8229 160.463 13.4574C159.62 14.0919 158.981 14.9773 158.545 16.1136C158.11 17.25 157.892 18.5758 157.892 20.0909ZM186.602 9.18182V12.5909H174.685V9.18182H186.602ZM177.881 3.95455H182.128V24.5938C182.128 25.4176 182.251 26.0379 182.497 26.4545C182.743 26.8617 183.061 27.1411 183.449 27.2926C183.847 27.4347 184.277 27.5057 184.741 27.5057C185.082 27.5057 185.381 27.482 185.636 27.4347C185.892 27.3873 186.091 27.3494 186.233 27.321L187 30.8295C186.754 30.9242 186.403 31.0189 185.949 31.1136C185.494 31.2178 184.926 31.2746 184.244 31.2841C183.127 31.303 182.085 31.1042 181.119 30.6875C180.153 30.2708 179.372 29.6269 178.776 28.7557C178.179 27.8845 177.881 26.7907 177.881 25.4744V3.95455Z" fill="#007ACC"/>
</svg>
